<svg width="60" height="60" viewBox="0 0 60 60" fill="none" xmlns="http://www.w3.org/2000/svg">
<g id="Group">
<path id="Vector" d="M49.3359 17.8125V38.9062L60 24.8438L49.3359 17.8125Z" fill="#575F64"/>
<path id="Vector_2" d="M0 24.8438L10.6641 42.4219V17.8125L0 24.8438Z" fill="#7C8388"/>
<path id="Vector_3" d="M52.8516 1.75781V52.9688H7.14844V1.75781C7.14844 0.77332 7.92176 0 8.90625 0H51.0938C52.0782 0 52.8516 0.77332 52.8516 1.75781Z" fill="#FFF5F5"/>
<path id="Vector_4" d="M52.8516 1.75781V52.9688H30V0H51.0938C52.0782 0 52.8516 0.77332 52.8516 1.75781Z" fill="#EFE2DD"/>
<path id="Vector_5" d="M30 7.26562C21.2814 7.26562 14.1797 14.3671 14.1797 23.0859C14.1797 31.8046 21.2814 38.9062 30 38.9062C38.7186 38.9062 45.8203 31.8046 45.8203 23.0859C45.8203 14.3671 38.7186 7.26562 30 7.26562Z" fill="#7FE881"/>
<path id="Vector_6" d="M45.8203 23.0859C45.8203 31.8046 38.7186 38.9062 30 38.9062V7.26562C38.7186 7.26562 45.8203 14.3671 45.8203 23.0859Z" fill="#5BC980"/>
<path id="Vector_7" d="M37.6639 21.4335L29.9999 29.0625L29.4724 29.5897C29.1561 29.9414 28.6991 30.1172 28.2421 30.1172C27.785 30.1172 27.328 29.9414 27.0117 29.5897L21.7383 24.3163C21.0352 23.6483 21.0352 22.5233 21.7383 21.8553C22.4062 21.1523 23.531 21.1523 24.1991 21.8553L28.2422 25.8632L35.1679 18.9375C35.8358 18.2695 36.9608 18.2695 37.6641 18.9375C38.3319 19.6405 38.3319 20.7655 37.6639 21.4335Z" fill="#7C8388"/>
<path id="Vector_8" d="M37.6641 21.4335L30 29.0625V24.1054L35.1679 18.9375C35.8358 18.2695 36.9608 18.2695 37.6641 18.9375C38.332 19.6405 38.332 20.7655 37.6641 21.4335Z" fill="#575F64"/>
<path id="Vector_9" d="M0 24.8438V58.2422C0 58.7276 0.196758 59.167 0.514805 59.485L13.8278 53.3205L19.3965 40.7207L0 24.8438Z" fill="#FFB64C"/>
<path id="Vector_10" d="M60 58.2422V24.8438L40.6035 40.7207L46.7276 53.8759L59.4852 59.485C59.6487 59.3219 59.7783 59.1282 59.8667 58.915C59.955 58.7017 60.0003 58.473 60 58.2422Z" fill="#FF9100"/>
<path id="Vector_11" d="M59.4724 59.4728C59.1561 59.7893 58.7343 60.0002 58.2421 60.0002H1.7577C1.26551 60.0002 0.843633 59.7893 0.527344 59.4728L19.3827 40.7344L28.8749 48.5392C29.1914 48.7853 29.6133 48.9259 29.9999 48.9259C30.3865 48.9259 30.8084 48.7854 31.1249 48.5392L40.6171 40.7344L59.4724 59.4728Z" fill="#FFD396"/>
<path id="Vector_12" d="M59.4725 59.4728C59.1562 59.7893 58.7344 60.0002 58.2422 60.0002H30V48.9259C30.3867 48.9259 30.8085 48.7854 31.125 48.5392L40.6172 40.7344L59.4725 59.4728Z" fill="#FFB64C"/>
</g>
</svg>
