<svg width="60" height="60" viewBox="0 0 60 60" fill="none" xmlns="http://www.w3.org/2000/svg">
<g id="Group">
<path id="Vector" d="M30 60C46.5685 60 60 46.5685 60 30C60 13.4315 46.5685 0 30 0C13.4315 0 0 13.4315 0 30C0 46.5685 13.4315 60 30 60Z" fill="#BBEC6C"/>
<path id="Vector_2" d="M30 0C29.3916 0 28.7879 0.0202817 28.1884 0.0560161C43.9131 0.992958 55.6067 14.0399 55.6067 30C55.6067 45.9601 43.9131 59.007 28.1883 59.944C28.7879 59.9797 29.3916 60 30 60C46.5686 60 60 46.5686 60 30C60 13.4314 46.5686 0 30 0Z" fill="#A2E62E"/>
<path id="Vector_3" d="M30 55.6065C44.1422 55.6065 55.6067 44.142 55.6067 29.9998C55.6067 15.8576 44.1422 4.39307 30 4.39307C15.8578 4.39307 4.39328 15.8576 4.39328 29.9998C4.39328 44.142 15.8578 55.6065 30 55.6065Z" fill="#4FC123"/>
<path id="Vector_4" d="M30 4.39307C29.3908 4.39307 28.787 4.41588 28.1884 4.45765C41.4851 5.38723 51.9835 16.4668 51.9835 29.9998C51.9835 43.5329 41.4851 54.6123 28.1884 55.5419C28.787 55.5838 29.3908 55.6065 30 55.6065C44.1423 55.6065 55.6067 44.1419 55.6067 29.9998C55.6067 15.8577 44.1423 4.39307 30 4.39307Z" fill="#47A920"/>
<path id="Vector_5" d="M45.4889 24.8512L29.1441 41.1973C27.4105 42.9297 24.6024 42.9297 22.87 41.1973L14.5111 32.8383C13.5501 31.8786 13.5501 30.3212 14.5111 29.3615L16.9473 26.9253V26.9241L17.773 26.0983C18.7328 25.1385 20.2901 25.1385 21.2499 26.0983L25.433 30.2814C25.8821 30.7317 26.6125 30.7317 27.0616 30.2814L38.9903 18.3526C39.9501 17.3929 41.5074 17.3929 42.4672 18.3526L45.4889 21.3744C46.4499 22.3353 46.4499 23.8915 45.4889 24.8512Z" fill="#D1F19E"/>
<g id="Group_2">
<path id="Vector_6" d="M27.0616 30.2811L25.6769 31.6658C25.1312 32.2127 24.2463 32.2163 23.6946 31.6742L19.4608 27.5177C18.7811 26.8368 17.802 26.6412 16.9473 26.9249V26.9237L17.7731 26.098C18.7328 25.1382 20.2902 25.1382 21.2499 26.098L25.433 30.2811C25.8821 30.7314 26.6125 30.7314 27.0616 30.2811ZM45.4894 21.3744L42.4675 18.3524C41.5073 17.3923 39.9507 17.3923 38.9906 18.3524L38.2093 19.1337C38.9126 19.0682 39.6388 19.3043 40.1772 19.8429L41.8661 21.3745C42.8262 22.3346 42.8262 23.8912 41.8661 24.8514L26.876 40.0382C25.8058 41.1085 24.3248 41.5166 22.9405 41.2646C24.6779 42.9283 27.4343 42.9067 29.1436 41.1973L45.4895 24.8514C46.4495 23.8912 46.4495 22.3345 45.4894 21.3744Z" fill="#BBEC6C"/>
</g>
</g>
</svg>
