<svg xmlns="http://www.w3.org/2000/svg" width="20" height="20" viewBox="0 0 20 20" fill="none">
  <path fill-rule="evenodd" clip-rule="evenodd" d="M9.99935 18.9584C5.0518 18.9584 1.04102 14.9477 1.04102 10.0001C1.04102 5.05253 5.0518 1.04175 9.99935 1.04175C14.9469 1.04175 18.9577 5.05253 18.9577 10.0001C18.9577 14.9477 14.9469 18.9584 9.99935 18.9584ZM13.7327 7.81471C14.1364 7.59389 14.2848 7.08752 14.0639 6.68373C13.8431 6.27993 13.3368 6.1316 12.933 6.35243C11.4091 7.1858 10.149 8.79417 9.30177 10.0914C8.98868 10.5709 8.72118 11.0248 8.50718 11.4093C8.30755 11.2157 8.10983 11.0476 7.933 10.9077C7.7016 10.7248 7.49337 10.5805 7.34154 10.4811L7.07901 10.318C6.67922 10.09 6.17029 10.2292 5.94228 10.6291C5.71432 11.0287 5.85346 11.5375 6.25303 11.7657L6.42827 11.8752C6.54728 11.9532 6.71405 12.0687 6.89932 12.2152C7.28062 12.5166 7.69207 12.9117 7.951 13.3447C8.10991 13.6103 8.40302 13.766 8.7121 13.749C9.0211 13.7319 9.29527 13.5447 9.42402 13.2633L9.50593 13.0922C9.56235 12.9768 9.64685 12.8082 9.75685 12.6004C9.97727 12.184 10.2978 11.6144 10.6972 11.0027C11.5167 9.748 12.5898 8.43966 13.7327 7.81471Z" fill="#29CC79"/>
</svg>