<svg width="21" height="20" viewBox="0 0 21 20" fill="none" xmlns="http://www.w3.org/2000/svg">
<g id="Frame">
<rect x="1.37109" y="0.5" width="19" height="19" rx="9.5" stroke="transparent"/>
<path id="Vector" fill-rule="evenodd" clip-rule="evenodd" d="M10.8714 18.9584C5.92387 18.9584 1.91309 14.9477 1.91309 10.0001C1.91309 5.05253 5.92387 1.04175 10.8714 1.04175C15.819 1.04175 19.8298 5.05253 19.8298 10.0001C19.8298 14.9477 15.819 18.9584 10.8714 18.9584ZM14.6048 7.81471C15.0085 7.59389 15.1568 7.08752 14.936 6.68373C14.7152 6.27993 14.2088 6.1316 13.8051 6.35243C12.2812 7.1858 11.0211 8.79417 10.1738 10.0914C9.86075 10.5709 9.59325 11.0248 9.37925 11.4093C9.17962 11.2157 8.9819 11.0476 8.80507 10.9077C8.57367 10.7248 8.36544 10.5805 8.21361 10.4811L7.95108 10.318C7.55129 10.09 7.04236 10.2292 6.81435 10.6291C6.58639 11.0287 6.72553 11.5375 7.1251 11.7657L7.30034 11.8752C7.41935 11.9532 7.58612 12.0687 7.77139 12.2152C8.15269 12.5166 8.56414 12.9117 8.82307 13.3447C8.98198 13.6103 9.27509 13.766 9.58417 13.749C9.89317 13.7319 10.1673 13.5447 10.2961 13.2633L10.378 13.0922C10.4344 12.9768 10.5189 12.8082 10.6289 12.6004C10.8493 12.184 11.1698 11.6144 11.5693 11.0027C12.3888 9.748 13.4619 8.43966 14.6048 7.81471Z" fill="#595959"/>
</g>
</svg>
