<svg width="24" height="24" viewBox="0 0 24 24" fill="none" xmlns="http://www.w3.org/2000/svg">
<g id="Chart">
<path id="Fill 1" fill-rule="evenodd" clip-rule="evenodd" d="M6.12109 16.5621C5.70709 16.5621 5.37109 16.2261 5.37109 15.8121V8.95215C5.37109 8.53815 5.70709 8.20215 6.12109 8.20215C6.53509 8.20215 6.87109 8.53815 6.87109 8.95215V15.8121C6.87109 16.2261 6.53509 16.5621 6.12109 16.5621Z" fill="#27CF7A"/>
<path id="Fill 3" fill-rule="evenodd" clip-rule="evenodd" d="M10.7891 16.561C10.3751 16.561 10.0391 16.225 10.0391 15.811V5.66797C10.0391 5.25397 10.3751 4.91797 10.7891 4.91797C11.2031 4.91797 11.5391 5.25397 11.5391 5.66797V15.811C11.5391 16.225 11.2031 16.561 10.7891 16.561Z" fill="#27CF7A"/>
<path id="Fill 5" fill-rule="evenodd" clip-rule="evenodd" d="M15.3789 16.5611C14.9649 16.5611 14.6289 16.2251 14.6289 15.8111V12.5771C14.6289 12.1631 14.9649 11.8271 15.3789 11.8271C15.7929 11.8271 16.1289 12.1631 16.1289 12.5771V15.8111C16.1289 16.2251 15.7929 16.5611 15.3789 16.5611Z" fill="#27CF7A"/>
<path id="Fill 7" fill-rule="evenodd" clip-rule="evenodd" d="M6.064 1.5C3.292 1.5 1.5 3.397 1.5 6.335V15.165C1.5 18.103 3.292 20 6.064 20H15.436C18.209 20 20 18.103 20 15.165V6.335C20 3.397 18.209 1.5 15.436 1.5H6.064ZM15.436 21.5H6.064C2.437 21.5 0 18.954 0 15.165V6.335C0 2.546 2.437 0 6.064 0H15.436C19.063 0 21.5 2.546 21.5 6.335V15.165C21.5 18.954 19.063 21.5 15.436 21.5Z" fill="#27CF7A"/>
</g>
</svg>
