<svg width="12" height="12" viewBox="0 0 12 12" fill="none" xmlns="http://www.w3.org/2000/svg">
<g id="Frame" clip-path="url(#clip0_874_16759)">
<path id="Vector" fill-rule="evenodd" clip-rule="evenodd" d="M6 11.375C3.03147 11.375 0.625 8.96855 0.625 6C0.625 3.03147 3.03147 0.625 6 0.625C8.96855 0.625 11.375 3.03147 11.375 6C11.375 8.96855 8.96855 11.375 6 11.375ZM8.24 4.68878C8.48225 4.55628 8.57125 4.25247 8.43875 4.01019C8.30625 3.76791 8.00245 3.67891 7.7602 3.81141C6.84585 4.31143 6.0898 5.27645 5.58145 6.0548C5.3936 6.3425 5.2331 6.61485 5.1047 6.84555C4.98492 6.72935 4.86629 6.6285 4.76019 6.5446C4.62135 6.43485 4.49641 6.34825 4.40531 6.2886L4.2478 6.19075C4.00793 6.05395 3.70256 6.1375 3.56576 6.3774C3.42898 6.6172 3.51247 6.92245 3.75221 7.05935L3.85736 7.1251C3.92876 7.17185 4.02882 7.24115 4.13999 7.32905C4.36877 7.5099 4.61563 7.747 4.77099 8.00675C4.86633 8.16615 5.0422 8.25955 5.22765 8.24935C5.41305 8.2391 5.57755 8.1268 5.6548 7.95795L5.70395 7.85525C5.7378 7.78605 5.7885 7.68485 5.8545 7.5602C5.98675 7.31035 6.17905 6.9686 6.4187 6.6016C6.9104 5.84875 7.5543 5.06375 8.24 4.68878Z" fill="#29CC79"/>
</g>
<defs>
<clipPath id="clip0_874_16759">
<rect width="12" height="12" fill="white"/>
</clipPath>
</defs>
</svg>
