<svg width="193" height="40" viewBox="0 0 193 40" fill="none" xmlns="http://www.w3.org/2000/svg">
<g id="Logo 2 1">
<g id="Group">
<g id="Group_2">
<g id="Group_3">
<g id="Group_4">
<path id="Vector" d="M36.0033 19.9737C36.0033 21.5529 35.6795 23.057 35.0921 24.4181C34.3692 26.0951 33.2471 27.5691 31.854 28.7046C29.9111 30.2914 27.426 31.2465 24.715 31.2465C22.004 31.2465 19.519 30.2914 17.5761 28.7046C16.1754 27.5616 15.0609 26.0951 14.338 24.4181C13.7506 23.057 13.4268 21.5529 13.4268 19.9737C13.4268 13.7469 18.4873 8.69336 24.7226 8.69336C30.9578 8.69336 36.0033 13.7469 36.0033 19.9737Z" fill="#27CF7A"/>
</g>
</g>
<g id="Group_5">
<path id="Vector_2" d="M24.715 32.4417C17.8471 32.4417 12.252 26.8617 12.252 19.9958C12.252 13.1373 17.8396 7.5498 24.715 7.5498C31.5828 7.5498 37.178 13.1298 37.178 19.9958C37.1705 26.8617 31.5828 32.4417 24.715 32.4417ZM24.715 7.9935C18.0881 7.9935 12.6887 13.378 12.6887 19.9958C12.6887 26.6135 18.0806 32.0055 24.715 32.0055C31.3419 32.0055 36.7412 26.6211 36.7412 19.9958C36.7337 13.378 31.3419 7.9935 24.715 7.9935Z" fill="#F5F5F5"/>
</g>
<g id="Group_6">
<g id="Group_7">
<path id="Vector_3" d="M33.8796 19.59C33.8796 19.5373 33.8796 19.4847 33.8721 19.4396C33.7892 17.8904 33.3675 16.4315 32.6069 15.0854C32.5768 15.0327 32.5542 14.9876 32.5241 14.935C32.1777 14.3484 31.7711 13.7919 31.3268 13.3031C31.2891 13.258 31.2515 13.2204 31.2213 13.1828C31.0557 13.0023 30.8749 12.8218 30.6942 12.6564C30.6716 12.6338 30.6415 12.6112 30.6189 12.5887C30.6038 12.5736 30.5888 12.5586 30.5737 12.5511C30.536 12.521 30.5059 12.4834 30.4683 12.4533C30.2273 12.2427 29.9788 12.0472 29.7152 11.8592L29.2559 11.5283V28.4037L29.7152 28.0728C29.9788 27.8848 30.2273 27.6817 30.4683 27.4787L30.5662 27.3884V20.6203H33.8721L33.8796 20.342C33.8871 20.2142 33.8871 20.0863 33.8871 19.9585C33.8871 19.8306 33.8871 19.7103 33.8796 19.59ZM30.5662 19.3042V14.4236C30.7846 14.6868 30.9879 14.9575 31.1686 15.2358L31.1912 15.2809C31.2138 15.311 31.2364 15.3411 31.259 15.3862C31.997 16.5669 32.4488 17.9205 32.5542 19.3117H30.5662V19.3042Z" fill="#F5F5F5"/>
</g>
<g id="Group_8">
<path id="Vector_4" d="M19.5416 11.9719C19.3082 12.1449 19.0747 12.3404 18.8413 12.5434L18.7961 12.5886C18.7735 12.6111 18.7509 12.6337 18.7283 12.6487L18.6379 12.7314C18.5175 12.8518 18.3518 13.0097 18.2087 13.1676C18.171 13.2052 18.1334 13.2503 18.0957 13.2879C17.9301 13.4684 17.7719 13.664 17.6063 13.8745C17.5535 13.9422 17.5084 14.0024 17.4556 14.0776C17.2523 14.3558 17.0641 14.6491 16.8909 14.9349C16.8607 14.9875 16.8306 15.0326 16.808 15.0853C16.6725 15.3259 16.5445 15.5741 16.4315 15.8223C16.3788 15.9351 16.3261 16.0554 16.2809 16.1682C15.8516 17.206 15.6031 18.3114 15.5429 19.4395C15.5429 19.4921 15.5354 19.5448 15.5354 19.5899C15.5278 19.7102 15.5278 19.838 15.5278 19.9659C15.5278 20.0937 15.5278 20.2141 15.5354 20.3419C15.5354 20.3945 15.5354 20.4472 15.5429 20.4923C15.6031 21.6203 15.8516 22.7258 16.2809 23.7636C16.3261 23.8839 16.3788 23.9967 16.4315 24.1095C16.4842 24.2148 16.5294 24.3201 16.5821 24.4254C16.6499 24.5683 16.7252 24.7111 16.8005 24.839C16.8306 24.8916 16.8607 24.9443 16.8909 24.9969C17.0641 25.2977 17.2523 25.5835 17.4556 25.8542L17.4858 25.8918C17.5234 25.9445 17.5611 25.9971 17.6063 26.0497L18.1259 26.7115V24.5006L18.0807 24.4329L18.0732 24.4254C18.028 24.3502 17.9828 24.275 17.9376 24.1998C17.4707 23.3725 17.1469 22.4701 16.9737 21.5301C16.921 21.2293 16.8758 20.9285 16.8532 20.6201H18.6756V27.2379L18.7584 27.3207C18.781 27.3432 18.8111 27.3658 18.8187 27.3808C19.0371 27.5763 19.2705 27.7719 19.519 27.9524L19.9859 28.2983V11.626L19.5416 11.9719ZM16.8758 19.3041C16.8984 19.0033 16.936 18.7025 16.9963 18.3942C17.1695 17.4541 17.4933 16.5592 17.9602 15.7245C18.0054 15.6493 18.0506 15.5666 18.1033 15.4838C18.1259 15.4462 18.1485 15.4086 18.1786 15.3635C18.1936 15.3334 18.2162 15.3034 18.2388 15.2658L18.2614 15.2282C18.4045 15.0176 18.5476 14.807 18.7057 14.6115V19.2966H16.8758V19.3041Z" fill="#F5F5F5"/>
</g>
<g id="Group_9">
<path id="Vector_5" d="M24.4969 10.0166L24.1731 10.0542C23.9246 10.0843 23.6685 10.1219 23.42 10.1745L23.2694 10.2046C22.6067 10.3475 21.9516 10.5656 21.3265 10.8363C21.2738 10.8589 21.2211 10.8814 21.1759 10.904C20.9124 11.0243 20.6563 11.1597 20.4229 11.295L20.2798 11.3778V28.5314L20.4229 28.6141C20.4756 28.6442 20.5208 28.6667 20.5735 28.6968H21.5901V20.6201H23.1866V28.7118H24.4969V20.5449L23.9095 19.9583L24.4969 19.3717V10.0166ZM21.5901 19.3041V12.1674C22.1022 11.9192 22.6368 11.7237 23.1866 11.5808V19.3116H21.5901V19.3041Z" fill="#F5F5F5"/>
</g>
<g id="Group_10">
<path id="Vector_6" d="M27.5994 17.5594V12.1223C27.1175 11.8967 26.6204 11.7162 26.1084 11.5808V19.3041H28.9097V28.5915L28.7591 28.6742C28.7365 28.6818 28.7215 28.6968 28.6989 28.7043H24.7905V22.3648H26.1008V28.3434C26.6204 28.208 27.1175 28.0275 27.5919 27.8019V20.6201H24.7905V10.0166L25.1219 10.0542C25.3779 10.0843 25.6339 10.1294 25.8749 10.1745C25.9201 10.182 25.9728 10.1971 26.0331 10.2046C26.6581 10.34 27.2756 10.543 27.863 10.7912C27.9082 10.8137 27.9609 10.8288 28.0136 10.8589C28.2847 10.9792 28.5332 11.107 28.7666 11.2424L28.9173 11.3251V17.5519H27.5994V17.5594Z" fill="#F5F5F5"/>
</g>
</g>
<g id="Group_11">
<path id="Vector_7" d="M35.0922 24.418C34.3693 26.095 33.2473 27.5689 31.8541 28.7045H17.5687C16.168 27.5614 15.0535 26.095 14.3306 24.418H35.0922Z" fill="#303038"/>
</g>
<g id="Group_12">
<g id="Group_13">
<path id="Vector_8" d="M19.8052 25.9363C19.6395 25.7784 19.391 25.6881 19.1726 25.6881C18.6379 25.6881 18.3141 26.0942 18.3141 26.6056C18.3141 27.0117 18.5551 27.4328 19.1726 27.4328C19.3684 27.4328 19.5416 27.3877 19.7374 27.2373V26.7936H19.1048V26.3725H20.1742V27.4178C19.9257 27.696 19.6169 27.8615 19.1801 27.8615C18.2464 27.8615 17.8623 27.2448 17.8623 26.5981C17.8623 25.8987 18.2991 25.252 19.1801 25.252C19.5115 25.252 19.8504 25.3798 20.1064 25.628L19.8052 25.9363Z" fill="#F5F5F5"/>
</g>
<g id="Group_14">
<path id="Vector_9" d="M23.0056 27.8085H22.4483L21.7254 26.9813H21.2735V27.8085H20.8066V25.3193C21.1982 25.3193 21.5973 25.3193 21.9889 25.3193C22.5763 25.3193 22.8851 25.7104 22.8851 26.139C22.8851 26.4774 22.7269 26.8234 22.2525 26.9211L23.0056 27.7709V27.8085ZM21.266 25.763V26.5602H21.9814C22.2826 26.5602 22.4106 26.3646 22.4106 26.1616C22.4106 25.9661 22.2826 25.763 21.9814 25.763H21.266Z" fill="#F5F5F5"/>
</g>
<g id="Group_15">
<path id="Vector_10" d="M25.9274 26.5833C25.9198 27.2225 25.5282 27.8692 24.6547 27.8692C23.7812 27.8692 23.3745 27.2375 23.3745 26.5908C23.3745 25.9365 23.7962 25.2823 24.6547 25.2823C25.5057 25.2748 25.9349 25.9365 25.9274 26.5833ZM23.8339 26.5983C23.8414 27.0044 24.0673 27.4406 24.6547 27.4406C25.2421 27.4406 25.4605 26.9969 25.468 26.5908C25.4755 26.1697 25.2421 25.7034 24.6547 25.7034C24.0598 25.7034 23.8188 26.1772 23.8339 26.5983Z" fill="#F5F5F5"/>
</g>
<g id="Group_16">
<path id="Vector_11" d="M28.7366 25.335V26.7563C28.7366 27.4933 28.2848 27.8693 27.6597 27.8693C27.0648 27.8693 26.5527 27.5083 26.5527 26.7563V25.335H27.0196V26.7563C27.0196 27.2 27.2757 27.4406 27.6597 27.4406C28.0438 27.4406 28.2697 27.1849 28.2697 26.7563V25.335H28.7366Z" fill="#F5F5F5"/>
</g>
<g id="Group_17">
<path id="Vector_12" d="M30.6492 27.0794H29.9488V27.8088H29.4819V25.3271C29.8735 25.3271 30.2651 25.3271 30.6567 25.3271C31.8691 25.3271 31.8691 27.0794 30.6492 27.0794ZM29.9488 26.6507H30.6492C31.2516 26.6507 31.2441 25.7708 30.6492 25.7708H29.9488V26.6507Z" fill="#F5F5F5"/>
</g>
</g>
</g>
<g id="Group_18">
<g id="Group_19">
<path id="Vector_13" d="M43.0744 23.312V27.0946H42.3213V23.312H40.9658V22.6201H44.4299V23.312H43.0744Z" fill="#F5F5F5"/>
<path id="Vector_14" d="M47.1709 22.6201H47.924V27.0946H47.1709V22.6201Z" fill="#F5F5F5"/>
<path id="Vector_15" d="M53.1426 26.4101C53.4061 26.4101 53.6245 26.365 53.8128 26.2823C54.001 26.192 54.1968 26.0567 54.4002 25.8611L54.8897 26.3575C54.4152 26.8839 53.8429 27.1471 53.1652 27.1471C52.4874 27.1471 51.9226 26.929 51.4783 26.4928C51.034 26.0567 50.8081 25.5077 50.8081 24.8384C50.8081 24.1691 51.034 23.6201 51.4934 23.1764C51.9452 22.7327 52.5251 22.5146 53.2179 22.5146C53.9107 22.5146 54.4905 22.7703 54.9574 23.2817L54.4755 23.8081C54.2646 23.6051 54.0613 23.4622 53.873 23.3795C53.6848 23.2968 53.4589 23.2591 53.2028 23.2591C52.751 23.2591 52.3669 23.402 52.0582 23.6953C51.7494 23.9886 51.5988 24.3571 51.5988 24.8158C51.5988 25.2746 51.7494 25.6506 52.0582 25.9589C52.3594 26.2597 52.7209 26.4101 53.1426 26.4101Z" fill="#F5F5F5"/>
<path id="Vector_16" d="M57.7363 22.6201H58.4894V24.801L60.5377 22.6201H61.5016L59.7018 24.5754L61.5317 27.0946H60.6356L59.1521 25.1394L58.4969 25.8463V27.1022H57.7439V22.6201H57.7363Z" fill="#F5F5F5"/>
<path id="Vector_17" d="M67.3228 22.6201V23.327H64.9357V24.5152H67.0819V25.1845H64.9357V26.3802H67.4057V27.0946H64.1826V22.6201H67.3228Z" fill="#F5F5F5"/>
<path id="Vector_18" d="M71.984 23.312V27.0946H71.231V23.312H69.8755V22.6201H73.3471V23.312H71.984Z" fill="#F5F5F5"/>
<path id="Vector_19" d="M77.4364 23.2144C77.218 23.2144 77.0373 23.2595 76.8942 23.3498C76.7511 23.44 76.6834 23.5754 76.6834 23.7559C76.6834 23.9364 76.7511 24.0792 76.8942 24.1695C77.0373 24.2672 77.3385 24.3725 77.7979 24.4778C78.2572 24.5831 78.6036 24.741 78.8371 24.9441C79.0705 25.1471 79.1835 25.4404 79.1835 25.8315C79.1835 26.2225 79.0329 26.5384 78.7392 26.779C78.4455 27.0196 78.0539 27.14 77.5795 27.14C76.8791 27.14 76.2541 26.8993 75.7119 26.418L76.1863 25.8465C76.6382 26.2375 77.1126 26.4331 77.5945 26.4331C77.8355 26.4331 78.0313 26.3804 78.1744 26.2751C78.3175 26.1699 78.3928 26.0345 78.3928 25.8615C78.3928 25.6886 78.325 25.5532 78.1895 25.4554C78.0539 25.3577 77.8205 25.275 77.4967 25.1922C77.1653 25.117 76.9168 25.0418 76.7436 24.9741C76.5704 24.9065 76.4198 24.8237 76.2918 24.7185C76.0282 24.5154 75.8926 24.2071 75.8926 23.7935C75.8926 23.3799 76.0433 23.064 76.3445 22.8384C76.6457 22.6128 77.0222 22.5 77.4665 22.5C77.7527 22.5 78.0388 22.5451 78.3175 22.6429C78.5961 22.7331 78.8446 22.8685 79.0479 23.0415L78.6413 23.613C78.5057 23.4927 78.3325 23.3949 78.1066 23.3197C77.8807 23.252 77.6623 23.2144 77.4364 23.2144Z" fill="#F5F5F5"/>
<path id="Vector_20" d="M86.9321 27.1478C86.5104 27.1478 86.1564 27.035 85.8628 26.8019C85.5691 26.5687 85.4185 26.2529 85.4185 25.8468C85.4185 25.3655 85.7724 24.9368 86.4727 24.5608C86.2995 24.3578 86.1715 24.1923 86.1037 24.0645C86.036 23.9367 85.9983 23.7712 85.9983 23.5757C85.9983 23.2373 86.1263 22.9741 86.3748 22.7861C86.6233 22.6056 86.9246 22.5078 87.2634 22.5078C87.6023 22.5078 87.896 22.5981 88.137 22.771C88.378 22.944 88.4984 23.1922 88.4984 23.508C88.4984 23.9291 88.1596 24.3277 87.4743 24.7037C87.8132 25.1248 88.0918 25.4407 88.3102 25.6663C88.4457 25.4708 88.5436 25.2452 88.6189 24.982L89.1461 25.3505C89.0331 25.6437 88.9051 25.8994 88.7695 26.125C88.9427 26.298 89.1611 26.5086 89.4247 26.7567L88.9427 27.2079L88.3554 26.6214C87.9638 26.9748 87.4894 27.1478 86.9321 27.1478ZM86.3748 26.3431C86.5405 26.4634 86.7514 26.5236 87.0225 26.5236C87.2936 26.5236 87.5797 26.4033 87.8809 26.1551C87.4517 25.7039 87.1053 25.3204 86.8568 25.0196C86.3748 25.2828 86.1339 25.5685 86.1339 25.8769C86.1263 26.0649 86.2092 26.2228 86.3748 26.3431ZM87.2559 23.0869C87.1128 23.0869 86.9848 23.132 86.8718 23.2222C86.7589 23.3125 86.6986 23.4178 86.6986 23.5381C86.6986 23.6584 86.7288 23.7637 86.789 23.8614C86.8493 23.9592 86.9472 24.0871 87.0902 24.26C87.5722 24.0194 87.8132 23.8013 87.8132 23.5907C87.8132 23.4178 87.7529 23.2899 87.64 23.2072C87.527 23.1245 87.399 23.0869 87.2559 23.0869Z" fill="#F5F5F5"/>
<path id="Vector_21" d="M97.1283 23.2144C96.9099 23.2144 96.7292 23.2595 96.5861 23.3498C96.443 23.44 96.3752 23.5754 96.3752 23.7559C96.3752 23.9364 96.443 24.0792 96.5861 24.1695C96.7292 24.2672 97.0304 24.3725 97.4898 24.4778C97.9491 24.5831 98.2955 24.741 98.529 24.9441C98.7624 25.1471 98.8754 25.4404 98.8754 25.8315C98.8754 26.2225 98.7248 26.5384 98.4311 26.779C98.1374 27.0196 97.7458 27.14 97.2714 27.14C96.571 27.14 95.946 26.8993 95.4038 26.418L95.8782 25.8465C96.3301 26.2375 96.8045 26.4331 97.2864 26.4331C97.5274 26.4331 97.7232 26.3804 97.8663 26.2751C98.0094 26.1699 98.0847 26.0345 98.0847 25.8615C98.0847 25.6886 98.0169 25.5532 97.8813 25.4554C97.7458 25.3577 97.5124 25.275 97.1885 25.1922C96.8572 25.117 96.6087 25.0418 96.4355 24.9741C96.2623 24.9065 96.1117 24.8237 95.9837 24.7185C95.7201 24.5154 95.5845 24.2071 95.5845 23.7935C95.5845 23.3799 95.7351 23.064 96.0364 22.8384C96.3376 22.6128 96.7141 22.5 97.1584 22.5C97.4446 22.5 97.7307 22.5451 98.0094 22.6429C98.288 22.7331 98.5365 22.8685 98.7398 23.0415L98.3332 23.613C98.1976 23.4927 98.0244 23.3949 97.7985 23.3197C97.5726 23.252 97.3467 23.2144 97.1283 23.2144Z" fill="#F5F5F5"/>
<path id="Vector_22" d="M101.737 22.6201H102.49V27.0946H101.737V22.6201Z" fill="#F5F5F5"/>
<path id="Vector_23" d="M106.414 27.0946H105.661V22.6201H106.843L108.198 25.4327L109.554 22.6201H110.729V27.0946H109.976V23.5977L108.409 26.7036H107.988L106.429 23.5977V27.0946H106.414Z" fill="#F5F5F5"/>
<path id="Vector_24" d="M120.955 23.2072C121.384 23.5982 121.603 24.1397 121.603 24.8391C121.603 25.5385 121.392 26.0874 120.978 26.4935C120.556 26.8996 119.916 27.1027 119.057 27.1027H117.566V22.6281H119.103C119.901 22.6206 120.518 22.8161 120.955 23.2072ZM120.835 24.8541C120.835 23.8314 120.247 23.32 119.073 23.32H118.319V26.3882H119.163C119.705 26.3882 120.119 26.2604 120.413 26.0047C120.707 25.749 120.835 25.358 120.835 24.8541Z" fill="#F5F5F5"/>
<path id="Vector_25" d="M124.495 22.6201H125.248V27.0946H124.495V22.6201Z" fill="#F5F5F5"/>
<path id="Vector_26" d="M129.773 23.2144C129.555 23.2144 129.374 23.2595 129.231 23.3498C129.088 23.44 129.02 23.5754 129.02 23.7559C129.02 23.9364 129.088 24.0792 129.231 24.1695C129.374 24.2672 129.675 24.3725 130.135 24.4778C130.594 24.5831 130.941 24.741 131.174 24.9441C131.407 25.1471 131.52 25.4404 131.52 25.8315C131.52 26.2225 131.37 26.5384 131.076 26.779C130.782 27.0196 130.391 27.14 129.916 27.14C129.216 27.14 128.591 26.8993 128.049 26.418L128.523 25.8465C128.975 26.2375 129.45 26.4331 129.931 26.4331C130.172 26.4331 130.368 26.3804 130.511 26.2751C130.654 26.1699 130.73 26.0345 130.73 25.8615C130.73 25.6886 130.662 25.5532 130.526 25.4554C130.391 25.3577 130.157 25.275 129.834 25.1922C129.502 25.117 129.254 25.0418 129.081 24.9741C128.907 24.9065 128.757 24.8237 128.629 24.7185C128.365 24.5154 128.23 24.2071 128.23 23.7935C128.23 23.3799 128.38 23.064 128.681 22.8384C128.983 22.6128 129.359 22.5 129.803 22.5C130.09 22.5 130.376 22.5451 130.654 22.6429C130.933 22.7331 131.182 22.8685 131.385 23.0415L130.978 23.613C130.843 23.4927 130.669 23.3949 130.444 23.3197C130.218 23.252 129.999 23.2144 129.773 23.2144Z" fill="#F5F5F5"/>
<path id="Vector_27" d="M136.076 23.312V27.0946H135.323V23.312H133.968V22.6201H137.439V23.312H136.076Z" fill="#F5F5F5"/>
<path id="Vector_28" d="M143.758 24.0715C143.758 24.8085 143.434 25.2748 142.786 25.4703L143.961 27.0946H142.997L141.928 25.5906H140.934V27.0946H140.181V22.6201H141.845C142.53 22.6201 143.02 22.7329 143.313 22.966C143.607 23.1992 143.758 23.5677 143.758 24.0715ZM142.749 24.7107C142.899 24.5754 142.982 24.3648 142.982 24.0715C142.982 23.7782 142.899 23.5752 142.741 23.4699C142.583 23.3646 142.304 23.3045 141.898 23.3045H140.934V24.9063H141.875C142.304 24.9063 142.598 24.8386 142.749 24.7107Z" fill="#F5F5F5"/>
<path id="Vector_29" d="M146.77 22.6201H147.523V27.0946H146.77V22.6201Z" fill="#F5F5F5"/>
<path id="Vector_30" d="M152.651 27.0946H150.686V22.6201H152.433C152.734 22.6201 152.997 22.6577 153.216 22.7254C153.434 22.7931 153.6 22.8984 153.705 23.0187C153.909 23.2518 154.014 23.5075 154.014 23.8008C154.014 24.1542 153.901 24.4099 153.683 24.5829C153.6 24.6431 153.547 24.6807 153.517 24.6957C153.487 24.7107 153.434 24.7333 153.359 24.7709C153.638 24.8311 153.856 24.9589 154.022 25.1469C154.187 25.3349 154.27 25.5756 154.27 25.8538C154.27 26.1621 154.165 26.4404 153.946 26.681C153.69 26.9593 153.261 27.0946 152.651 27.0946ZM151.446 24.4776H152.41C152.96 24.4776 153.231 24.2896 153.231 23.9211C153.231 23.7105 153.163 23.5526 153.035 23.4624C152.907 23.3721 152.696 23.3195 152.418 23.3195H151.446V24.4776ZM151.446 26.3953H152.636C152.915 26.3953 153.125 26.3501 153.276 26.2674C153.427 26.1772 153.494 26.0117 153.494 25.7711C153.494 25.3725 153.178 25.177 152.538 25.177H151.446V26.3953Z" fill="#F5F5F5"/>
<path id="Vector_31" d="M158.141 26.0722C158.344 26.3128 158.623 26.4332 158.977 26.4332C159.331 26.4332 159.602 26.3128 159.813 26.0722C160.016 25.8315 160.121 25.5082 160.121 25.1021V22.6279H160.874V25.1397C160.874 25.7864 160.694 26.2828 160.34 26.6287C159.986 26.9746 159.527 27.1476 158.977 27.1476C158.427 27.1476 157.968 26.9746 157.614 26.6287C157.26 26.2828 157.079 25.7864 157.079 25.1397V22.6279H157.832V25.1021C157.84 25.5082 157.938 25.8315 158.141 26.0722Z" fill="#F5F5F5"/>
<path id="Vector_32" d="M165.679 23.312V27.0946H164.926V23.312H163.57V22.6201H167.042V23.312H165.679Z" fill="#F5F5F5"/>
<path id="Vector_33" d="M173.406 26.4785C172.954 26.9222 172.389 27.1403 171.726 27.1403C171.056 27.1403 170.499 26.9222 170.047 26.4785C169.595 26.0348 169.369 25.4858 169.369 24.824C169.369 24.1623 169.595 23.6133 170.047 23.1696C170.499 22.7259 171.056 22.5078 171.726 22.5078C172.389 22.5078 172.954 22.7259 173.406 23.1696C173.857 23.6133 174.083 24.1623 174.083 24.824C174.083 25.4858 173.857 26.0348 173.406 26.4785ZM172.856 23.681C172.547 23.3651 172.178 23.2072 171.734 23.2072C171.289 23.2072 170.913 23.3651 170.612 23.681C170.303 23.9968 170.152 24.3803 170.152 24.8316C170.152 25.2828 170.303 25.6663 170.612 25.9821C170.92 26.298 171.289 26.4559 171.734 26.4559C172.178 26.4559 172.555 26.298 172.856 25.9821C173.165 25.6663 173.315 25.2828 173.315 24.8316C173.315 24.3803 173.157 23.9968 172.856 23.681Z" fill="#F5F5F5"/>
<path id="Vector_34" d="M180.544 24.0715C180.544 24.8085 180.22 25.2748 179.573 25.4703L180.748 27.0946H179.784L178.714 25.5906H177.72V27.0946H176.967V22.6201H178.632C179.317 22.6201 179.806 22.7329 180.1 22.966C180.394 23.1992 180.544 23.5677 180.544 24.0715ZM179.535 24.7107C179.686 24.5754 179.769 24.3648 179.769 24.0715C179.769 23.7782 179.686 23.5752 179.528 23.4699C179.37 23.3646 179.091 23.3045 178.684 23.3045H177.72V24.9063H178.662C179.091 24.9063 179.385 24.8386 179.535 24.7107Z" fill="#F5F5F5"/>
</g>
<g id="Group_20">
<path id="Vector_35" d="M44.972 12.9043V13.927H42.5547V15.0476H44.8515V16.0703H42.5547V18.1083H41.395V12.9043H44.972Z" fill="#F5F5F5"/>
<path id="Vector_36" d="M49.3847 18.1005L48.9028 16.98H46.7189L46.237 18.1005H45.002L47.2536 12.8965H48.3756L50.6273 18.1005H49.3847ZM47.8108 14.4532L47.1557 15.9647H48.4585L47.8108 14.4532Z" fill="#F5F5F5"/>
<path id="Vector_37" d="M52.4049 13.9413C52.2919 14.0316 52.2392 14.1519 52.2392 14.3098C52.2392 14.4677 52.307 14.5805 52.4425 14.6708C52.5781 14.761 52.8943 14.8663 53.3914 14.9866C53.8884 15.1069 54.2724 15.2874 54.5435 15.5356C54.8146 15.7762 54.9502 16.1297 54.9502 16.6035C54.9502 17.0772 54.777 17.4457 54.423 17.739C54.0691 18.0323 53.6097 18.1752 53.045 18.1752C52.2241 18.1752 51.4786 17.8669 50.8159 17.2577L51.5087 16.4079C52.0735 16.8968 52.5856 17.1449 53.0675 17.1449C53.2784 17.1449 53.4516 17.0998 53.5721 17.0096C53.6926 16.9193 53.7528 16.7915 53.7528 16.6336C53.7528 16.4756 53.6851 16.3553 53.557 16.2651C53.429 16.1748 53.173 16.0771 52.7889 15.9868C52.1865 15.8439 51.7422 15.6559 51.456 15.4228C51.1774 15.1897 51.0343 14.8287 51.0343 14.3399C51.0343 13.8511 51.215 13.4675 51.569 13.1968C51.9229 12.9261 52.3672 12.7832 52.9019 12.7832C53.2483 12.7832 53.5947 12.8434 53.9411 12.9637C54.2875 13.084 54.5887 13.2495 54.8523 13.4675L54.2649 14.3173C53.8131 13.9714 53.3462 13.806 52.8642 13.806C52.6684 13.806 52.5178 13.8511 52.4049 13.9413Z" fill="#F5F5F5"/>
<path id="Vector_38" d="M58.0976 13.912V18.1083H56.9379V13.912H55.4619V12.9043H59.5736V13.912H58.0976Z" fill="#F5F5F5"/>
<path id="Vector_39" d="M63.6099 13.9413C63.497 14.0316 63.4443 14.1519 63.4443 14.3098C63.4443 14.4677 63.512 14.5805 63.6476 14.6708C63.7831 14.761 64.0994 14.8663 64.5964 14.9866C65.0935 15.1069 65.4775 15.2874 65.7486 15.5356C66.0197 15.7762 66.1553 16.1297 66.1553 16.6035C66.1553 17.0772 65.9821 17.4457 65.6281 17.739C65.2742 18.0323 64.8148 18.1752 64.25 18.1752C63.4292 18.1752 62.6837 17.8669 62.021 17.2577L62.7138 16.4079C63.2786 16.8968 63.7907 17.1449 64.2726 17.1449C64.4835 17.1449 64.6567 17.0998 64.7772 17.0096C64.8977 16.9193 64.9579 16.7915 64.9579 16.6336C64.9579 16.4756 64.8901 16.3553 64.7621 16.2651C64.6341 16.1748 64.3781 16.0771 63.994 15.9868C63.3916 15.8439 62.9473 15.6559 62.6611 15.4228C62.3825 15.1897 62.2394 14.8287 62.2394 14.3399C62.2394 13.8511 62.4201 13.4675 62.774 13.1968C63.128 12.9261 63.5723 12.7832 64.107 12.7832C64.4534 12.7832 64.7998 12.8434 65.1462 12.9637C65.4926 13.084 65.7938 13.2495 66.0574 13.4675L65.47 14.3173C65.0181 13.9714 64.5513 13.806 64.0693 13.806C63.8735 13.806 63.7229 13.8511 63.6099 13.9413Z" fill="#F5F5F5"/>
<path id="Vector_40" d="M70.8996 12.9043V13.9421H68.3091V15.01H70.6436V16.0026H68.3091V17.078H70.9825V18.1083H67.1494V12.9043H70.8996Z" fill="#F5F5F5"/>
<path id="Vector_41" d="M76.2388 14.6261C76.2388 15.4609 75.9074 15.9948 75.2448 16.243L76.5626 18.1005H75.1318L73.9796 16.4385H73.1739V18.1005H72.0142V12.8965H73.9872C74.7929 12.8965 75.3728 13.0318 75.7192 13.3026C76.0656 13.5883 76.2388 14.0245 76.2388 14.6261ZM74.8381 15.2503C74.9812 15.1225 75.0565 14.9194 75.0565 14.6337C75.0565 14.3554 74.9812 14.1599 74.8306 14.0546C74.68 13.9493 74.4239 13.8967 74.0474 13.8967H73.1739V15.4383H74.0248C74.4239 15.4383 74.695 15.3782 74.8381 15.2503Z" fill="#F5F5F5"/>
<path id="Vector_42" d="M79.2585 16.2132L80.5838 12.9043H81.8414L79.748 18.1083H78.7615L76.668 12.9043H77.9256L79.2585 16.2132Z" fill="#F5F5F5"/>
<path id="Vector_43" d="M82.459 12.9043H83.6187V18.1083H82.459V12.9043Z" fill="#F5F5F5"/>
<path id="Vector_44" d="M87.2938 17.0772C87.8661 17.0772 88.333 16.8516 88.6945 16.4004L89.44 17.1675C88.8451 17.8293 88.1523 18.1677 87.3465 18.1677C86.5407 18.1677 85.8856 17.912 85.366 17.4081C84.8464 16.9043 84.5903 16.2651 84.5903 15.4905C84.5903 14.7159 84.8539 14.0767 85.381 13.5578C85.9082 13.0389 86.5558 12.7832 87.3239 12.7832C88.1749 12.7832 88.8903 13.1066 89.4701 13.7608L88.7472 14.5805C88.3782 14.1218 87.9264 13.8962 87.3766 13.8962C86.9399 13.8962 86.5633 14.0391 86.2546 14.3248C85.9458 14.6106 85.7877 14.9941 85.7877 15.4754C85.7877 15.9567 85.9308 16.3478 86.2245 16.6411C86.5257 16.9268 86.8796 17.0772 87.2938 17.0772Z" fill="#F5F5F5"/>
<path id="Vector_45" d="M94.1164 12.9043V13.9421H91.5259V15.01H93.8604V16.0026H91.5259V17.078H94.1992V18.1083H90.3662V12.9043H94.1164Z" fill="#F5F5F5"/>
<path id="Vector_46" d="M100.239 17.6567C99.8245 17.9951 99.335 18.1605 98.7928 18.1605C98.2506 18.1605 97.7912 18.0177 97.4373 17.7394C97.0834 17.4612 96.9102 17.0776 96.9102 16.5888C96.9102 16.0398 97.2792 15.5586 98.0021 15.1374C97.8364 14.9419 97.7159 14.7614 97.6481 14.611C97.5804 14.4606 97.5352 14.2801 97.5352 14.0771C97.5352 13.6559 97.6858 13.3326 97.9946 13.107C98.3033 12.8814 98.6648 12.7686 99.079 12.7686C99.4931 12.7686 99.8546 12.8738 100.148 13.0919C100.442 13.31 100.593 13.6108 100.593 13.9943C100.593 14.4832 100.239 14.9344 99.5233 15.348C99.8019 15.6939 100.013 15.9421 100.148 16.1C100.276 15.8744 100.367 15.6338 100.434 15.3781L101.308 16.0022C101.195 16.3181 101.052 16.6039 100.894 16.8746L101.632 17.6041L100.894 18.3034L100.239 17.6567ZM98.2355 17.0626C98.3786 17.1754 98.5669 17.2356 98.7928 17.2356C99.0187 17.2356 99.2672 17.1303 99.5308 16.9047C99.1693 16.5211 98.853 16.1752 98.5895 15.8669C98.2054 16.1075 98.0171 16.3632 98.0171 16.6339C98.0171 16.8069 98.0849 16.9498 98.2355 17.0626ZM99.0714 13.6635C98.9585 13.6635 98.8606 13.7011 98.7777 13.7763C98.6874 13.8515 98.6497 13.9567 98.6497 14.0921C98.6497 14.2275 98.7476 14.4155 98.9509 14.6636C99.3199 14.4681 99.5082 14.2801 99.5082 14.1072C99.5082 13.9643 99.463 13.8515 99.3726 13.7763C99.2823 13.7011 99.1844 13.6635 99.0714 13.6635Z" fill="#F5F5F5"/>
<path id="Vector_47" d="M106.587 13.912V18.1083H105.427V13.912H103.951V12.9043H108.063V13.912H106.587Z" fill="#F5F5F5"/>
<path id="Vector_48" d="M113.131 14.6261C113.131 15.4609 112.8 15.9948 112.137 16.243L113.455 18.1005H112.024L110.872 16.4385H110.066V18.1005H108.906V12.8965H110.879C111.685 12.8965 112.265 13.0318 112.611 13.3026C112.958 13.5883 113.131 14.0245 113.131 14.6261ZM111.73 15.2503C111.873 15.1225 111.949 14.9194 111.949 14.6337C111.949 14.3554 111.873 14.1599 111.723 14.0546C111.572 13.9493 111.316 13.8967 110.94 13.8967H110.066V15.4383H110.917C111.316 15.4383 111.587 15.3782 111.73 15.2503Z" fill="#F5F5F5"/>
<path id="Vector_49" d="M115.699 16.7622C115.895 17.0028 116.151 17.1231 116.482 17.1231C116.813 17.1231 117.069 17.0028 117.258 16.7622C117.446 16.5215 117.544 16.1906 117.544 15.777V12.9043H118.703V15.8146C118.703 16.5666 118.493 17.1457 118.078 17.5518C117.664 17.9579 117.13 18.1609 116.474 18.1609C115.819 18.1609 115.292 17.9579 114.87 17.5518C114.449 17.1457 114.238 16.5666 114.238 15.8221V12.9118H115.398V15.7845C115.413 16.1906 115.51 16.5215 115.699 16.7622Z" fill="#F5F5F5"/>
<path id="Vector_50" d="M121.136 13.9419C121.023 14.0321 120.97 14.1525 120.97 14.3104C120.97 14.4683 121.038 14.5811 121.173 14.6714C121.309 14.7616 121.625 14.8669 122.122 14.9872C122.619 15.1075 123.003 15.288 123.274 15.5362C123.546 15.7768 123.681 16.1303 123.681 16.6041C123.681 17.0778 123.508 17.4463 123.154 17.7396C122.8 18.0329 122.341 18.1758 121.776 18.1758C120.955 18.1758 120.21 17.8675 119.547 17.2583L120.24 16.4085C120.804 16.8973 121.317 17.1455 121.799 17.1455C122.009 17.1455 122.183 17.1004 122.303 17.0101C122.424 16.9199 122.484 16.7921 122.484 16.6341C122.484 16.4762 122.416 16.3559 122.288 16.2656C122.16 16.1754 121.904 16.0776 121.52 15.9874C120.917 15.8445 120.473 15.6565 120.187 15.4234C119.908 15.1903 119.765 14.8293 119.765 14.3405C119.765 13.8517 119.946 13.4681 120.3 13.1974C120.654 12.9267 121.098 12.7988 121.633 12.7988C121.979 12.7988 122.326 12.859 122.672 12.9793C123.018 13.0996 123.32 13.2651 123.583 13.4832L122.996 14.333C122.544 13.987 122.077 13.8216 121.595 13.8216C121.399 13.8065 121.249 13.8517 121.136 13.9419Z" fill="#F5F5F5"/>
<path id="Vector_51" d="M126.829 13.912V18.1083H125.669V13.912H124.193V12.9043H128.305V13.912H126.829Z" fill="#F5F5F5"/>
<path id="Vector_52" d="M132.914 12.9043V13.9421H130.323V15.01H132.658V16.0026H130.323V17.078H132.997V18.1083H129.164V12.9043H132.914Z" fill="#F5F5F5"/>
<path id="Vector_53" d="M138.004 13.5808C138.501 14.032 138.75 14.6637 138.75 15.4759C138.75 16.2881 138.509 16.9273 138.027 17.3936C137.545 17.8673 136.807 18.1005 135.813 18.1005H134.036V12.8965H135.873C136.799 12.904 137.507 13.1296 138.004 13.5808ZM137.153 16.6792C137.439 16.4084 137.583 16.0249 137.583 15.5135C137.583 15.0021 137.439 14.6111 137.153 14.3328C136.867 14.0546 136.43 13.9192 135.835 13.9192H135.188V17.0777H135.926C136.46 17.0777 136.867 16.9424 137.153 16.6792Z" fill="#F5F5F5"/>
<path id="Vector_54" d="M144.119 17.0772C144.691 17.0772 145.158 16.8516 145.52 16.4004L146.265 17.1675C145.67 17.8293 144.977 18.1677 144.172 18.1677C143.366 18.1677 142.711 17.912 142.191 17.4081C141.672 16.9043 141.416 16.2651 141.416 15.4905C141.416 14.7159 141.679 14.0767 142.206 13.5578C142.733 13.0389 143.381 12.7832 144.149 12.7832C145 12.7832 145.715 13.1066 146.295 13.7608L145.572 14.5805C145.203 14.1218 144.752 13.8962 144.202 13.8962C143.765 13.8962 143.389 14.0391 143.08 14.3248C142.771 14.6106 142.613 14.9941 142.613 15.4754C142.613 15.9567 142.756 16.3478 143.05 16.6411C143.343 16.9268 143.697 17.0772 144.119 17.0772Z" fill="#F5F5F5"/>
<path id="Vector_55" d="M151.446 17.3856C150.919 17.8969 150.271 18.1526 149.503 18.1526C148.735 18.1526 148.087 17.8969 147.56 17.3856C147.033 16.8742 146.77 16.235 146.77 15.4679C146.77 14.7009 147.033 14.0692 147.56 13.5503C148.087 13.0314 148.735 12.7832 149.503 12.7832C150.271 12.7832 150.919 13.0389 151.446 13.5503C151.973 14.0616 152.237 14.7009 152.237 15.4679C152.237 16.235 151.973 16.8742 151.446 17.3856ZM151.054 15.4754C151.054 15.0092 150.904 14.6181 150.61 14.2872C150.309 13.9639 149.947 13.7984 149.511 13.7984C149.074 13.7984 148.712 13.9639 148.411 14.2872C148.11 14.6181 147.967 15.0092 147.967 15.4754C147.967 15.9417 148.118 16.3327 148.411 16.6561C148.712 16.9795 149.074 17.1449 149.511 17.1449C149.947 17.1449 150.309 16.9795 150.61 16.6561C150.911 16.3327 151.054 15.9342 151.054 15.4754Z" fill="#F5F5F5"/>
<path id="Vector_56" d="M157.885 14.8292L156.477 17.6718H155.784L154.383 14.8292V18.1005H153.224V12.8965H154.798L156.138 15.7542L157.486 12.8965H159.052V18.1005H157.893V14.8292H157.885Z" fill="#F5F5F5"/>
<path id="Vector_57" d="M163.917 13.3706C164.278 13.6789 164.466 14.1602 164.466 14.7994C164.466 15.4386 164.278 15.9124 163.901 16.2132C163.525 16.514 162.953 16.6569 162.185 16.6569H161.492V18.1083H160.332V12.9043H162.169C162.968 12.9043 163.548 13.0622 163.917 13.3706ZM163.058 15.416C163.194 15.2581 163.269 15.0325 163.269 14.7317C163.269 14.4309 163.179 14.2203 162.998 14.0925C162.817 13.9646 162.531 13.9045 162.154 13.9045H161.492V15.6492H162.275C162.659 15.6492 162.923 15.574 163.058 15.416Z" fill="#F5F5F5"/>
<path id="Vector_58" d="M168.774 18.1005L168.292 16.98H166.108L165.626 18.1005H164.391L166.643 12.8965H167.765L170.016 18.1005H168.774ZM167.2 14.4532L166.545 15.9647H167.848L167.2 14.4532Z" fill="#F5F5F5"/>
<path id="Vector_59" d="M174.256 12.9043H175.416V18.1083H174.256L171.779 14.852V18.1083H170.619V12.9043H171.704L174.256 16.2508V12.9043Z" fill="#F5F5F5"/>
<path id="Vector_60" d="M178.94 18.1008H177.78V16.0477L175.98 12.9043H177.238L178.36 14.837L179.482 12.9043H180.74L178.94 16.0477V18.1008Z" fill="#F5F5F5"/>
</g>
</g>
</g>
</g>
</svg>
