<svg width="17" height="16" viewBox="0 0 17 16" fill="none" xmlns="http://www.w3.org/2000/svg">
<g id="Frame">
<path id="Vector" d="M13.5417 3.66675L13.1113 10.3501C13.0013 12.0577 12.9464 12.9115 12.5006 13.5253C12.2801 13.8288 11.9963 14.0849 11.6672 14.2774C11.0015 14.6667 10.1104 14.6667 8.32826 14.6667C6.54383 14.6667 5.6516 14.6667 4.98545 14.2767C4.65611 14.0839 4.37222 13.8273 4.15186 13.5233C3.70617 12.9085 3.6524 12.0535 3.54487 10.3435L3.125 3.66675" stroke="#F5F5F5" stroke-linecap="round"/>
<path id="Vector_2" d="M14.5833 3.66675H2.08333" stroke="#F5F5F5" stroke-linecap="round"/>
<path id="Vector_3" d="M11.1524 3.66659L10.6783 2.72774C10.3634 2.10409 10.2059 1.79227 9.93434 1.59779C9.87406 1.55465 9.81031 1.51628 9.74358 1.48305C9.44281 1.33325 9.08184 1.33325 8.3599 1.33325C7.61983 1.33325 7.24976 1.33325 6.94403 1.48933C6.87626 1.52393 6.8116 1.56385 6.7507 1.6087C6.47594 1.81105 6.32246 2.13429 6.0155 2.78076L5.59489 3.66659" stroke="#F5F5F5" stroke-linecap="round"/>
</g>
</svg>
