<svg width="16" height="16" viewBox="0 0 16 16" fill="none" xmlns="http://www.w3.org/2000/svg">
<g id="Frame" clip-path="url(#clip0_691_21253)">
<path id="Vector" d="M9.38214 2.589C9.87894 2.05075 10.1273 1.78163 10.3913 1.62465C11.0281 1.24587 11.8124 1.23409 12.4599 1.59358C12.7283 1.74256 12.9843 2.00411 13.4963 2.5272C14.0084 3.0503 14.2645 3.31184 14.4103 3.58598C14.7622 4.24744 14.7507 5.04856 14.3799 5.69916C14.2262 5.9688 13.9627 6.22255 13.4359 6.73003L7.16674 12.7682C6.16826 13.73 5.66901 14.2108 5.04505 14.4545C4.42109 14.6982 3.73514 14.6803 2.36325 14.6444L2.1766 14.6396C1.75895 14.6286 1.55012 14.6232 1.42874 14.4854C1.30734 14.3476 1.32392 14.1349 1.35706 13.7095L1.37506 13.4785C1.46835 12.281 1.51499 11.6824 1.74882 11.1442C1.98264 10.606 2.38597 10.169 3.19263 9.29503L9.38214 2.589Z" stroke="#29CC79" stroke-linejoin="round"/>
<path id="Vector_2" d="M8.66699 2.66797L13.3337 7.33464" stroke="#29CC79" stroke-linejoin="round"/>
<path id="Vector_3" d="M9.33301 14.668H14.6663" stroke="#29CC79" stroke-linecap="round" stroke-linejoin="round"/>
</g>
<defs>
<clipPath id="clip0_691_21253">
<rect width="16" height="16" fill="white"/>
</clipPath>
</defs>
</svg>
