<svg width="273" height="207" viewBox="0 0 273 207" fill="none" xmlns="http://www.w3.org/2000/svg">
<path d="M133.577 52.2963H71.1577C70.2268 52.2963 69.4556 51.5259 69.4556 50.5961V14.2822C69.4556 13.3524 70.2268 12.582 71.1577 12.582H133.577C134.508 12.582 135.279 13.3524 135.279 14.2822V50.5961C135.279 51.5259 134.508 52.2963 133.577 52.2963Z" stroke="#C0CCD8" stroke-width="0.498661"/>
<path d="M69.4556 19.7812H135.279" stroke="#C0CCD8" stroke-width="0.498661"/>
<path d="M74.7484 16.2218C74.7484 16.8062 74.2964 17.2844 73.7115 17.2844C73.1265 17.2844 72.6479 16.8062 72.6479 16.2218C72.6479 15.6373 73.1265 15.1592 73.7115 15.1592C74.2964 15.1592 74.7484 15.6373 74.7484 16.2218Z" stroke="#C0CCD8" stroke-width="0.498661"/>
<path d="M79.0824 16.2218C79.0824 16.8062 78.6038 17.2844 78.0189 17.2844C77.4605 17.2844 76.9819 16.8062 76.9819 16.2218C76.9819 15.6373 77.4605 15.1592 78.0189 15.1592C78.6038 15.1592 79.0824 15.6373 79.0824 16.2218Z" stroke="#C0CCD8" stroke-width="0.498661"/>
<path d="M83.4178 16.2218C83.4178 16.8062 82.9392 17.2844 82.3543 17.2844C81.7694 17.2844 81.3174 16.8062 81.3174 16.2218C81.3174 15.6373 81.7694 15.1592 82.3543 15.1592C82.9392 15.1592 83.4178 15.6373 83.4178 16.2218Z" stroke="#C0CCD8" stroke-width="0.498661"/>
<path d="M192.512 51.6855L188.15 47.1695H121.077C117.939 47.1695 115.412 44.6193 115.412 41.4846V6.65828C115.412 3.52365 117.939 1 121.077 1H188.443C191.581 1 194.134 3.52365 194.134 6.65828V51.0214C194.134 51.8714 193.097 52.2965 192.512 51.6855Z" fill="#F5F5F5"/>
<rect x="124.667" y="11.9004" width="12.7256" height="1.41233" rx="0.706165" fill="#C0CCD8"/>
<rect x="124.667" y="19.4326" width="12.7256" height="1.41233" rx="0.706165" fill="#C0CCD8"/>
<rect x="174.863" y="17.0781" width="12.7256" height="1.41233" rx="0.706165" transform="rotate(-180 174.863 17.0781)" fill="#C0CCD8"/>
<rect width="12.7256" height="1.41233" rx="0.706165" transform="matrix(1 -8.73223e-08 -8.75233e-08 -1 132.444 32.1436)" fill="#C0CCD8"/>
<rect x="174.863" y="24.6113" width="12.7256" height="1.41233" rx="0.706165" transform="rotate(-180 174.863 24.6113)" fill="#C0CCD8"/>
<rect x="160.016" y="17.0781" width="16.7318" height="1.41233" rx="0.706164" transform="rotate(-180 160.016 17.0781)" fill="#C0CCD8"/>
<rect width="16.7318" height="1.41233" rx="0.706164" transform="matrix(1 -8.73223e-08 -8.75233e-08 -1 147.291 32.1436)" fill="#C0CCD8"/>
<rect x="141.399" y="28.377" width="16.7318" height="1.41233" rx="0.706164" transform="rotate(-180 141.399 28.377)" fill="#C0CCD8"/>
<rect x="160.016" y="24.6113" width="16.7318" height="1.41233" rx="0.706164" transform="rotate(-180 160.016 24.6113)" fill="#C0CCD8"/>
<rect x="147.998" y="11.9004" width="34.6419" height="1.41233" rx="0.706165" fill="#C0CCD8"/>
<rect x="147.998" y="19.4326" width="34.6419" height="1.41233" rx="0.706165" fill="#C0CCD8"/>
<rect x="143.284" y="26.9648" width="34.6419" height="1.41233" rx="0.706165" fill="#C0CCD8"/>
<rect x="140.692" y="17.0781" width="16.0248" height="1.41233" rx="0.706164" transform="rotate(-180 140.692 17.0781)" fill="#C0CCD8"/>
<rect x="140.692" y="24.6113" width="16.0248" height="1.41233" rx="0.706164" transform="rotate(-180 140.692 24.6113)" fill="#C0CCD8"/>
<rect x="140.221" y="11.9004" width="4.94884" height="1.41233" rx="0.706165" fill="#C0CCD8"/>
<rect x="140.221" y="19.4326" width="4.94884" height="1.41233" rx="0.706165" fill="#C0CCD8"/>
<rect x="182.64" y="17.0781" width="4.94884" height="1.41233" rx="0.706165" transform="rotate(-180 182.64 17.0781)" fill="#C0CCD8"/>
<rect x="182.64" y="24.6113" width="4.94884" height="1.41233" rx="0.706165" transform="rotate(-180 182.64 24.6113)" fill="#C0CCD8"/>
<rect width="4.94884" height="1.41233" rx="0.706165" transform="matrix(1 -8.73223e-08 -8.75233e-08 -1 124.667 32.1436)" fill="#C0CCD8"/>
<path d="M192.512 51.6855L188.15 47.1695H121.077C117.939 47.1695 115.412 44.6193 115.412 41.4846V6.65828C115.412 3.52365 117.939 1 121.077 1H188.443C191.581 1 194.134 3.52365 194.134 6.65828V51.0214C194.134 51.8714 193.097 52.2965 192.512 51.6855Z" stroke="#C0CCD8" stroke-width="0.498661" stroke-linejoin="round"/>
<path d="M210.999 42.6041V27.6137C210.999 26.1787 212.153 25 213.616 25H228.623C230.086 25 231.266 26.1787 231.266 27.6137V42.6041C231.266 44.0647 230.086 45.2434 228.623 45.2434H213.616C212.153 45.2434 210.999 44.0647 210.999 42.6041Z" fill="#EFB64B"/>
<path fill-rule="evenodd" clip-rule="evenodd" d="M227.649 40.8098C227.581 40.8269 227.504 40.8354 227.418 40.8354H214.822C214.565 40.8354 214.335 40.7073 214.206 40.4767C214.052 40.246 214.052 39.9642 214.206 39.7336L220.491 28.8687C220.62 28.6381 220.851 28.4844 221.107 28.4844C221.389 28.4844 221.62 28.6381 221.749 28.8431L228.059 39.7336C228.188 39.9642 228.188 40.246 228.059 40.4767C227.957 40.6304 227.829 40.7329 227.649 40.8098ZM215.181 39.9129H227.059L221.107 29.6119L215.181 39.9129Z" fill="#F5F5F5"/>
<path d="M221.133 37.7351C220.877 37.7351 220.697 37.5558 220.672 37.3251L220.415 33.0458C220.415 32.6359 220.723 32.3027 221.108 32.3027C221.518 32.3027 221.826 32.6359 221.826 33.0458L221.569 37.3251C221.543 37.5558 221.364 37.7351 221.133 37.7351Z" fill="#F5F5F5"/>
<path d="M221.569 38.7859C221.569 39.0167 221.363 39.2219 221.133 39.2219C220.876 39.2219 220.671 39.0423 220.671 38.7859C220.671 38.5294 220.876 38.3242 221.133 38.3242C221.363 38.3242 221.569 38.5294 221.569 38.7859Z" fill="#F5F5F5"/>
<path d="M112.965 150.931H150.252L149.667 157.705H68.8971C63.7376 157.705 59.5356 154.172 58.7643 149.151L47.2485 75.1416H95.2796L105.944 144.98C106.476 148.46 109.375 150.931 112.965 150.931Z" fill="#475577"/>
<path d="M67.4867 150.931H117.034L116.422 157.705H64.4283C59.2422 157.705 55.0667 154.172 54.2955 149.151L43.418 79.2857C43.0989 77.1871 44.8807 75.1416 47.0616 75.1416H47.1679C48.7105 75.1416 49.987 76.2042 50.2264 77.7184L60.4922 144.98C61.0241 148.46 63.923 150.931 67.4867 150.931Z" fill="#717A91"/>
<path d="M92.9917 157.705V195.852" stroke="#544943" stroke-width="0.747991"/>
<path d="M71.6089 199.2C71.6089 197.34 73.0982 195.853 74.9599 195.853H111.023C112.885 195.853 114.401 197.34 114.401 199.2" stroke="#544943" stroke-width="0.747991"/>
<path d="M89.3208 199.2C89.3208 197.34 90.8097 195.853 92.6708 195.853" stroke="#544943" stroke-width="0.747991"/>
<path d="M75.0132 202.6C75.0132 204.487 73.4707 206.001 71.609 206.001C69.7207 206.001 68.1782 204.487 68.1782 202.6C68.1782 200.741 69.7207 199.2 71.609 199.2C73.4707 199.2 75.0132 200.741 75.0132 202.6Z" fill="#717A91"/>
<g opacity="0.5">
<path d="M72.8584 202.6C72.8584 203.291 72.2734 203.849 71.6087 203.849C70.9174 203.849 70.3325 203.291 70.3325 202.6C70.3325 201.909 70.9174 201.352 71.6087 201.352C72.2734 201.352 72.8584 201.909 72.8584 202.6Z" fill="#8E9DB2"/>
</g>
<path d="M92.7251 202.6C92.7251 204.487 91.1826 206.001 89.3209 206.001C87.4327 206.001 85.8901 204.487 85.8901 202.6C85.8901 200.741 87.4327 199.2 89.3209 199.2C91.1826 199.2 92.7251 200.741 92.7251 202.6Z" fill="#717A91"/>
<g opacity="0.5">
<path d="M90.5708 202.6C90.5708 203.291 89.9858 203.849 89.3211 203.849C88.6298 203.849 88.0449 203.291 88.0449 202.6C88.0449 201.909 88.6298 201.352 89.3211 201.352C89.9858 201.352 90.5708 201.909 90.5708 202.6Z" fill="#8E9DB2"/>
</g>
<path d="M117.806 202.6C117.806 204.487 116.29 206.001 114.402 206.001C112.513 206.001 110.998 204.487 110.998 202.6C110.998 200.741 112.513 199.2 114.402 199.2C116.29 199.2 117.806 200.741 117.806 202.6Z" fill="#717A91"/>
<g opacity="0.5">
<path d="M115.651 202.6C115.651 203.291 115.092 203.849 114.401 203.849C113.71 203.849 113.151 203.291 113.151 202.6C113.151 201.909 113.71 201.352 114.401 201.352C115.092 201.352 115.651 201.909 115.651 202.6Z" fill="#8E9DB2"/>
</g>
<path d="M130.544 82.6332L142.698 64.4629L146.475 65.2333C143.603 74.956 141.688 78.7813 141.688 78.7813" fill="#FFCBBB"/>
<path d="M141.289 66.9071L143.284 63.2943C143.284 63.2943 144.188 61.2488 146.369 60.9566C147.672 60.7972 150.012 60.9831 150.73 60.7972C151.475 60.6378 153.018 57.7422 153.789 57.8219C154.108 57.8751 154.241 60.1331 153.948 60.8769C153.603 61.8863 152.725 63.0817 151.395 63.7459C150.092 64.41 146.475 65.2335 146.475 65.2335L144.534 68.2619" fill="#FFCBBB"/>
<path d="M138.497 69.7768L140.625 66.6953L146.157 69.1658L144.401 73.8678" fill="#E6E8EF"/>
<path d="M94.0835 63.2944C94.0835 63.2944 103.099 59.1503 111.025 66.2165C118.977 73.2827 124.349 79.8177 127.248 81.9428L139.216 68.2089L145.891 71.3435C144.136 81.2787 139.189 97.1644 127.088 98.8114C114.003 100.565 94.8016 84.4399 94.8016 84.4399" fill="#247EFE"/>
<path d="M123.39 86.5125L127.246 81.9434" stroke="#0D2F61" stroke-width="0.498661"/>
<path d="M147.061 200.262L155.092 203.503C155.624 203.689 155.997 204.167 155.997 204.725C155.997 205.442 155.411 206 154.72 206H142.938C141.954 206 141.236 205.096 141.502 204.14L142.513 200.262" fill="#173789"/>
<path d="M151.342 143.731C149.134 161.264 147.06 200.261 147.06 200.261C144.56 202.758 142.512 200.261 142.512 200.261C142.512 200.261 133.842 159.351 135.704 139.613" fill="#FFCBBB"/>
<mask id="path-49-inside-1_438_1332" fill="white">
<path d="M107.619 116.503L121.129 123.596V123.729C121.129 123.729 148.709 121.869 152.884 131.698C159.427 147.105 160.517 197.207 160.517 197.207H140.331C140.331 197.207 132.831 155.128 130.252 152.551C127.698 150.001 117.114 150.187 97.6192 150.187C75.7579 150.187 86.4226 122.002 94.5608 119.584"/>
</mask>
<path d="M107.619 116.503L121.129 123.596V123.729C121.129 123.729 148.709 121.869 152.884 131.698C159.427 147.105 160.517 197.207 160.517 197.207H140.331C140.331 197.207 132.831 155.128 130.252 152.551C127.698 150.001 117.114 150.187 97.6192 150.187C75.7579 150.187 86.4226 122.002 94.5608 119.584" fill="#082247"/>
<path d="M121.129 123.596H121.379V123.445L121.245 123.375L121.129 123.596ZM121.129 123.729H120.88V123.995L121.146 123.977L121.129 123.729ZM152.884 131.698L153.114 131.601L153.114 131.6L152.884 131.698ZM160.517 197.207V197.456H160.772L160.766 197.201L160.517 197.207ZM140.331 197.207L140.086 197.25L140.122 197.456H140.331V197.207ZM107.503 116.724L121.014 123.816L121.245 123.375L107.735 116.282L107.503 116.724ZM120.88 123.596V123.729H121.379V123.596H120.88ZM121.129 123.729C121.146 123.977 121.146 123.977 121.146 123.977C121.147 123.977 121.147 123.977 121.147 123.977C121.148 123.977 121.149 123.977 121.151 123.977C121.154 123.977 121.159 123.976 121.166 123.976C121.179 123.975 121.198 123.974 121.224 123.972C121.276 123.969 121.353 123.965 121.454 123.959C121.656 123.948 121.953 123.933 122.333 123.917C123.093 123.885 124.184 123.851 125.506 123.841C128.151 123.82 131.719 123.895 135.415 124.275C139.114 124.656 142.929 125.342 146.072 126.539C149.223 127.739 151.651 129.432 152.655 131.795L153.114 131.6C152.03 129.049 149.444 127.289 146.25 126.073C143.048 124.854 139.185 124.162 135.467 123.779C131.746 123.396 128.159 123.321 125.502 123.342C124.173 123.353 123.077 123.387 122.312 123.419C121.93 123.435 121.631 123.45 121.426 123.461C121.324 123.467 121.246 123.471 121.193 123.475C121.167 123.476 121.147 123.478 121.133 123.478C121.127 123.479 121.122 123.479 121.118 123.479C121.116 123.48 121.115 123.48 121.114 123.48C121.114 123.48 121.113 123.48 121.113 123.48C121.113 123.48 121.113 123.48 121.129 123.729ZM152.655 131.795C154.277 135.616 155.568 141.609 156.59 148.47C157.611 155.326 158.36 163.026 158.905 170.249C159.45 177.471 159.791 184.212 159.995 189.148C160.098 191.616 160.166 193.632 160.208 195.031C160.229 195.731 160.244 196.276 160.254 196.647C160.259 196.832 160.262 196.973 160.264 197.068C160.266 197.116 160.266 197.152 160.267 197.176C160.267 197.188 160.267 197.197 160.268 197.203C160.268 197.206 160.268 197.208 160.268 197.21C160.268 197.21 160.268 197.211 160.268 197.211C160.268 197.212 160.268 197.212 160.517 197.207C160.766 197.201 160.766 197.201 160.766 197.201C160.766 197.2 160.766 197.2 160.766 197.199C160.766 197.197 160.766 197.195 160.766 197.192C160.766 197.186 160.766 197.177 160.766 197.164C160.765 197.14 160.764 197.104 160.763 197.056C160.761 196.961 160.757 196.819 160.752 196.634C160.743 196.263 160.728 195.717 160.707 195.016C160.664 193.615 160.596 191.597 160.494 189.127C160.289 184.188 159.948 177.441 159.403 170.211C158.857 162.983 158.107 155.269 157.084 148.397C156.061 141.531 154.763 135.484 153.114 131.601L152.655 131.795ZM160.517 196.957H140.331V197.456H160.517V196.957ZM140.331 197.207C140.577 197.163 140.577 197.163 140.577 197.162C140.577 197.162 140.576 197.161 140.576 197.161C140.576 197.16 140.576 197.158 140.575 197.155C140.574 197.15 140.573 197.142 140.571 197.132C140.568 197.112 140.562 197.082 140.555 197.042C140.541 196.962 140.52 196.844 140.492 196.689C140.436 196.38 140.354 195.927 140.249 195.349C140.039 194.193 139.736 192.539 139.364 190.546C138.621 186.56 137.602 181.218 136.503 175.796C135.404 170.374 134.224 164.868 133.157 160.556C132.623 158.4 132.117 156.539 131.663 155.133C131.435 154.431 131.22 153.838 131.018 153.378C130.821 152.927 130.625 152.572 130.428 152.375L130.075 152.728C130.2 152.852 130.365 153.129 130.562 153.577C130.753 154.016 130.963 154.592 131.188 155.287C131.638 156.676 132.14 158.524 132.673 160.676C133.737 164.978 134.916 170.475 136.014 175.895C137.113 181.314 138.131 186.653 138.874 190.637C139.246 192.629 139.549 194.283 139.759 195.438C139.864 196.016 139.945 196.469 140.001 196.777C140.029 196.932 140.05 197.05 140.064 197.13C140.071 197.17 140.077 197.2 140.08 197.22C140.082 197.23 140.084 197.238 140.084 197.243C140.085 197.245 140.085 197.247 140.085 197.248C140.086 197.249 140.086 197.249 140.086 197.25C140.086 197.25 140.086 197.25 140.331 197.207ZM130.428 152.375C129.735 151.683 128.532 151.205 126.867 150.862C125.193 150.517 123.006 150.3 120.301 150.164C114.891 149.891 107.362 149.938 97.6192 149.938V150.436C107.371 150.436 114.882 150.39 120.276 150.662C122.973 150.798 125.13 151.013 126.767 151.35C128.414 151.69 129.492 152.145 130.075 152.728L130.428 152.375ZM97.6192 149.938C92.2095 149.938 88.8636 148.197 86.9759 145.599C85.0803 142.99 84.6165 139.464 85.0875 135.824C85.558 132.188 86.958 128.471 88.7445 125.515C89.6375 124.038 90.6236 122.756 91.6331 121.772C92.6446 120.786 93.6673 120.11 94.6318 119.823L94.4898 119.345C93.4197 119.663 92.3289 120.397 91.285 121.415C90.2389 122.435 89.2275 123.752 88.3178 125.257C86.499 128.266 85.0732 132.048 84.5929 135.76C84.1131 139.469 84.5735 143.141 86.5725 145.892C88.5793 148.654 92.0984 150.436 97.6192 150.436V149.938Z" fill="#082247" mask="url(#path-49-inside-1_438_1332)"/>
<path d="M100.519 149.258C100.519 149.258 125.944 146.707 131.343 150.612C135.731 153.774 141.742 197.207 141.742 197.207" stroke="#173789" stroke-width="0.498661"/>
<path d="M104.721 200.262L112.779 203.503C113.311 203.689 113.657 204.167 113.657 204.725C113.657 205.442 113.099 206 112.38 206H100.599C99.6413 206 98.9232 205.096 99.1626 204.14L100.173 200.262" fill="#173789"/>
<path d="M114.002 143.731C111.795 161.264 104.721 200.261 104.721 200.261C102.221 202.758 100.173 200.261 100.173 200.261C100.173 200.261 100.253 159.351 102.141 139.613" fill="#FFCBBB"/>
<mask id="path-54-inside-2_438_1332" fill="white">
<path d="M83.7911 122.693C83.7911 122.693 119.243 123.277 123.87 134.009C129.588 147.186 120.173 197.207 120.173 197.207H98.8174V152.472C98.8174 151.595 98.126 150.825 97.2483 150.851C94.2962 150.931 87.7006 150.931 79.3231 150.931C57.4352 150.931 68.1265 116.928 76.2647 114.484"/>
</mask>
<path d="M83.7911 122.693C83.7911 122.693 119.243 123.277 123.87 134.009C129.588 147.186 120.173 197.207 120.173 197.207H98.8174V152.472C98.8174 151.595 98.126 150.825 97.2483 150.851C94.2962 150.931 87.7006 150.931 79.3231 150.931C57.4352 150.931 68.1265 116.928 76.2647 114.484" fill="#0D2F61"/>
<path d="M123.87 134.009L123.641 134.108L123.641 134.109L123.87 134.009ZM120.173 197.207V197.456H120.38L120.418 197.253L120.173 197.207ZM98.8174 197.207H98.5681V197.456H98.8174V197.207ZM97.2483 150.851L97.255 151.101L97.2559 151.101L97.2483 150.851ZM83.7911 122.693C83.787 122.942 83.7871 122.942 83.7873 122.942C83.7876 122.942 83.788 122.942 83.7885 122.942C83.7895 122.942 83.7911 122.942 83.7932 122.942C83.7974 122.942 83.8037 122.942 83.8121 122.943C83.829 122.943 83.8542 122.943 83.8876 122.944C83.9544 122.946 84.0538 122.948 84.1838 122.951C84.4437 122.958 84.8258 122.97 85.3141 122.988C86.2905 123.025 87.6911 123.09 89.3864 123.201C92.7776 123.423 97.3457 123.831 102.057 124.573C106.77 125.316 111.614 126.391 115.564 127.946C119.528 129.506 122.527 131.523 123.641 134.108L124.099 133.911C122.9 131.13 119.731 129.05 115.747 127.482C111.748 125.908 106.862 124.825 102.134 124.08C97.4036 123.335 92.8196 122.926 89.419 122.703C87.7185 122.592 86.3133 122.527 85.3329 122.49C84.8427 122.471 84.4586 122.46 84.197 122.453C84.0662 122.449 83.9659 122.447 83.8983 122.446C83.8645 122.445 83.8388 122.444 83.8215 122.444C83.8129 122.444 83.8064 122.444 83.802 122.444C83.7998 122.444 83.7981 122.444 83.797 122.444C83.7964 122.444 83.796 122.444 83.7957 122.444C83.7954 122.444 83.7952 122.444 83.7911 122.693ZM123.641 134.109C125.047 137.349 125.534 142.896 125.456 149.44C125.377 155.97 124.737 163.448 123.918 170.521C123.099 177.592 122.102 184.252 121.309 189.145C120.913 191.592 120.567 193.596 120.321 194.988C120.198 195.685 120.1 196.228 120.033 196.597C119.999 196.782 119.973 196.923 119.955 197.017C119.946 197.065 119.94 197.101 119.935 197.125C119.933 197.137 119.931 197.146 119.93 197.152C119.93 197.155 119.929 197.157 119.929 197.159C119.929 197.159 119.929 197.16 119.929 197.16C119.928 197.161 119.928 197.161 120.173 197.207C120.418 197.253 120.419 197.253 120.419 197.252C120.419 197.252 120.419 197.251 120.419 197.251C120.419 197.249 120.42 197.247 120.42 197.244C120.421 197.238 120.423 197.228 120.425 197.216C120.43 197.192 120.437 197.156 120.445 197.108C120.463 197.013 120.489 196.872 120.523 196.687C120.591 196.317 120.689 195.772 120.812 195.075C121.059 193.681 121.404 191.674 121.801 189.225C122.595 184.327 123.594 177.659 124.414 170.578C125.234 163.498 125.875 156 125.954 149.446C126.033 142.905 125.552 137.258 124.099 133.91L123.641 134.109ZM120.173 196.958H98.8174V197.456H120.173V196.958ZM99.0668 197.207V152.472H98.5681V197.207H99.0668ZM99.0668 152.472C99.0668 151.476 98.2791 150.571 97.2408 150.602L97.2559 151.101C97.9728 151.079 98.5681 151.715 98.5681 152.472H99.0668ZM97.2416 150.602C94.2939 150.682 87.7031 150.682 79.3231 150.682V151.18C87.6982 151.18 94.2986 151.181 97.255 151.101L97.2416 150.602ZM79.3231 150.682C73.926 150.682 70.5775 148.592 68.6803 145.451C66.7716 142.291 66.3078 138.028 66.782 133.651C67.2556 129.279 68.6618 124.829 70.4533 121.324C71.3489 119.571 72.3376 118.061 73.3486 116.917C74.3631 115.769 75.3828 115.01 76.3364 114.723L76.1929 114.246C75.1119 114.57 74.0174 115.408 72.975 116.587C71.9291 117.77 70.9183 119.318 70.0093 121.097C68.1913 124.654 66.7667 129.163 66.2862 133.597C65.8063 138.027 66.265 142.417 68.2534 145.709C70.2532 149.02 73.7763 151.18 79.3231 151.18V150.682Z" fill="#082247" mask="url(#path-54-inside-2_438_1332)"/>
<path d="M83.792 122.692C83.792 122.692 119.243 123.277 123.871 134.009C125.414 137.569 126.211 143.679 125.813 150.931" stroke="#082247" stroke-width="0.498661"/>
<path d="M78.4459 114.484C70.3078 116.928 61.3984 148.195 83.2597 148.195C94.6424 148.195 99.536 146.575 100.972 149.895C102.009 152.286 101.797 197.207 101.797 197.207" stroke="#082247" stroke-width="0.498661"/>
<path d="M83.0986 117.326C83.0986 117.326 84.8007 125.03 83.0986 126.73C81.3965 128.43 70.1733 128.165 70.1733 128.165" stroke="#082247" stroke-width="0.498661"/>
<path d="M84.6417 118.814C84.6417 118.814 86.5832 126.545 84.6417 128.245C82.7003 129.945 69.8813 129.679 69.8813 129.679" stroke="#082247" stroke-width="0.498661" stroke-dasharray="1.5 1.5"/>
<path d="M89.5072 61.115C95.3581 59.7337 108.629 74.1052 108.629 74.1052C117.565 82.7387 123.788 123.595 121.129 123.595C118.469 123.595 73.1777 123.728 69.1086 123.728C65.0395 123.728 67.7257 75.9647 67.7257 75.9647C67.7257 75.9647 83.6562 62.4698 89.5072 61.115Z" fill="#247EFE"/>
<path d="M118.257 97.6937L112.645 74.6621" stroke="#0D2F61" stroke-width="0.498661"/>
<path d="M33.6578 80.7725C33.6578 80.7725 31.7429 76.9206 28.8706 67.2245L32.6205 66.4541L44.8012 84.5978" fill="#FFCBBB"/>
<path d="M30.8122 70.2265L28.8707 67.2247C28.8707 67.2247 25.2538 66.4012 23.924 65.7371C22.6209 65.0464 21.7432 63.8776 21.3709 62.8681C21.1049 62.0977 21.2113 59.8397 21.557 59.8132C22.3283 59.7335 23.8708 62.6025 24.5889 62.7884C25.3336 62.9478 27.674 62.7884 28.9771 62.9478C31.1579 63.24 32.0622 65.2589 32.0622 65.2589L34.0568 68.8717" fill="#FFCBBB"/>
<path d="M30.9452 75.8582L29.1899 71.1563L34.7218 68.6592L36.8494 71.7672" fill="#E6E8EF"/>
<path d="M82.4335 81.3833C82.4335 81.3833 63.019 103.485 53.5777 103.485C41.53 103.485 33.4716 84.332 29.7749 73.0686L35.6525 69.9339C40.5726 76.3626 48.8171 86.8822 50.1469 86.8822C52.0617 86.8822 57.7797 72.2716 66.3434 65.0194C75.5454 57.2625 84.4548 63.5849 84.4548 63.5849" fill="#247EFE"/>
<path d="M66.9551 96.4192L81.2899 84.4385" stroke="#0D2F61" stroke-width="0.498661"/>
<path d="M94.9858 63.2676L93.8688 73.8669L85.3052 64.7021" fill="#E6E8EF"/>
<path d="M94.9858 63.2676L93.8688 73.8669L85.3052 64.7021" stroke="#0D2F61" stroke-width="0.498661" stroke-linejoin="round"/>
<path d="M92.1939 55.4572L94.6141 60.7171C94.6141 60.7171 95.5715 63.7454 91.5556 65.1268C87.1674 66.6144 84.4547 63.586 84.4547 63.586L83.8164 55.2979" fill="#FFCBBB"/>
<path d="M84.2408 60.5576C84.2408 60.5576 87.4056 64.5423 91.5545 65.1267L88.5226 69.5896C86.0758 68.2083 83.0972 62.8687 83.0972 62.8687L84.2408 60.5576Z" fill="#F5F5F5"/>
<path d="M95.705 62.7362C95.705 62.7362 95.7848 65.7645 94.9869 67.7038L91.5562 65.127C93.8433 62.8424 94.3487 60 94.3487 60L95.705 62.7362Z" fill="#F5F5F5"/>
<path d="M95.7576 46.9563C95.7576 46.9563 98.0448 55.6429 94.614 57.8478C91.2098 60.0261 85.279 56.6789 84.9333 55.5898C84.5875 54.5006 83.045 45.2295 85.2524 44.5389C89.2151 43.2903 94.5874 43.2372 95.7576 46.9563Z" fill="#FFCBBB"/>
<path d="M95.6769 49.7719C95.7301 50.0112 95.5971 50.2505 95.3578 50.3037C95.1186 50.3568 94.8793 50.1973 94.8261 49.958C94.7729 49.7187 94.9059 49.4794 95.1451 49.4263C95.3844 49.3731 95.6237 49.5326 95.6769 49.7719Z" fill="#173789"/>
<path d="M94.932 47.1685C95.0649 47.1951 95.7562 47.2748 95.5967 47.5939C95.5435 47.7534 95.3042 47.7268 95.1713 47.7268C95.0383 47.7268 94.9054 47.7003 94.7725 47.7534C94.8079 47.7889 94.8345 47.8332 94.8522 47.8864C94.9054 47.9927 94.5598 47.9927 94.5332 47.9927C94.2141 47.9927 93.8153 47.9395 93.4165 48.2054C93.6558 47.2483 94.6927 47.1419 94.932 47.1685Z" fill="#173789"/>
<path d="M90.625 50.4883C90.8909 50.4883 91.1036 50.6744 91.1036 50.9137C91.1301 51.153 90.9174 51.3657 90.6781 51.3923C90.4389 51.3923 90.2262 51.2061 90.2262 50.9669C90.1996 50.7276 90.3857 50.5149 90.625 50.4883Z" fill="#173789"/>
<path d="M90.3583 48.7629C90.438 48.7098 90.9698 48.391 90.9698 48.3379C90.89 49.1614 90.1721 49.8786 89.3213 49.9583C89.3213 49.799 89.4011 49.6396 89.5074 49.5599C89.2416 49.6396 89.0023 49.7724 88.7896 49.9318C88.6566 50.038 88.4439 50.0912 88.3908 49.8786C88.311 49.613 88.5769 49.3739 88.8959 49.2145C89.3745 48.9754 89.8797 48.9754 90.3583 48.7629Z" fill="#173789"/>
<path d="M93.4701 50.2773C93.4701 50.2773 94.6932 53.3323 94.2678 53.5979C93.8158 53.8636 92.3003 53.837 92.3003 53.837" stroke="#EF977F" stroke-width="0.498661"/>
<path d="M93.5234 58.3528C93.5234 58.3528 90.066 59.6811 87.0342 57.2637" stroke="#EF977F" stroke-width="0.498661"/>
<path d="M91.5562 56.307C91.5562 56.307 91.8752 54.9521 94.082 54.9521" stroke="#EF977F" stroke-width="0.498661"/>
<path d="M96.5548 46.1593C95.7835 46.7703 94.7729 46.9297 93.7888 47.0891C91.608 47.4079 89.4361 47.7975 87.273 48.2579C87.3794 49.7721 87.4592 51.2597 87.6453 52.7739C87.6453 52.8536 87.6453 52.9599 87.6187 53.0396C87.5655 53.1724 87.4326 53.2521 87.273 53.2787C86.8209 53.3584 86.4485 52.9865 86.0762 52.7739C86.2092 53.4115 86.2624 54.0756 86.1826 54.7397C86.1294 55.1382 86.023 55.5632 85.7039 55.8023C85.3581 56.0414 84.906 56.0148 84.5071 55.9883C82.4061 55.8023 82.0071 52.6942 81.7678 51.1269C81.5284 49.6924 81.3157 48.2579 81.2891 46.7969C81.2891 45.9734 81.3688 45.1499 81.688 44.4061C82.0603 43.5825 82.7518 42.8919 83.5497 42.4137C84.3209 41.909 85.1986 41.5636 86.0496 41.2449C87.8049 40.5807 89.64 39.8901 91.5548 39.9166C91.9538 39.9166 92.7516 39.6775 93.0442 40.1026C93.3367 40.5807 92.6984 40.9792 92.4059 41.2449C92.0335 41.5636 91.6612 41.8824 91.2889 42.2012C92.6453 41.2183 94.2942 40.687 95.9697 40.7136C96.4484 40.7136 96.9803 40.7667 97.2994 41.112C97.592 41.4308 97.6452 41.8558 97.6718 42.2809C97.8047 43.6622 97.6186 45.2561 96.5548 46.1593Z" fill="#173789"/>
<path d="M87.2999 55.0059C87.0074 55.67 86.6086 56.5201 85.9173 56.6263C84.4816 56.8123 83.4446 54.5809 83.8966 53.1198C84.0296 52.6682 84.2157 52.2166 84.5613 52.0041C85.5451 51.3931 86.1566 52.4822 86.5288 53.3589" fill="#FFCBBB"/>
<path d="M216.926 148.274C216.926 143.546 218.947 138.844 222.404 135.603C224.106 133.983 226.128 132.761 228.309 131.937C229.559 131.486 235.463 131.061 235.463 131.061C235.463 131.061 234.798 135.55 233.601 137.835C230.862 143.147 225.41 147.584 216.926 148.274Z" fill="#8EBCA2"/>
<path d="M234.346 161.743C236.473 159.113 239.558 157.28 242.909 156.669C246.234 156.058 249.771 156.669 252.696 158.369C252.803 158.422 252.909 158.502 252.936 158.608C252.962 158.714 252.856 158.847 252.776 158.953C250.037 162.008 245.755 163.682 241.659 163.257C239.851 163.097 236.048 162.3 234.346 161.743Z" fill="#A2CCB6"/>
<path d="M239.079 154.545C239.106 150.427 240.462 146.708 242.882 144.291C245.329 141.874 248.786 140.731 252.457 141.183C252.59 141.183 252.722 141.209 252.802 141.316C252.935 141.448 252.935 141.634 252.935 141.794C252.722 146.761 250.223 150.879 246.419 152.526C244.744 153.243 240.967 154.306 239.079 154.545Z" fill="#8EBCA2"/>
<path d="M245.517 147.159C247.139 144.529 249.134 142.112 251.394 140.013C252.325 139.163 253.282 138.366 254.399 137.755C257.937 135.869 262.325 136.453 266.155 137.755C264.639 140.624 262.644 143.467 259.745 144.928C258.442 145.565 257.032 145.91 255.623 146.229C252.83 146.84 248.336 146.787 245.517 147.159Z" fill="#A2CCB6"/>
<path d="M243.469 140.279C236.341 136.533 235.304 128.776 235.118 125.907C235.011 124.101 235.118 122.108 236.634 120.807C245.437 123.915 247.697 129.865 243.469 140.279Z" fill="#8EBCA2"/>
<path d="M211.315 137.171C207.884 136.055 204.879 133.691 203.017 130.609C201.155 127.554 200.411 123.809 201.022 120.249C204.347 120.249 207.378 122.215 209.692 124.606C210.65 125.589 211.527 126.651 212.139 127.9C213.868 131.3 213.362 135.364 212.804 139.137" fill="#8EBCA2"/>
<path d="M233.495 163.895C229.532 162.567 226.155 159.538 224.399 155.766C222.644 151.967 222.538 147.451 224.107 143.573C224.187 143.387 224.266 143.201 224.453 143.148C224.612 143.095 224.798 143.174 224.958 143.281C231.101 146.787 235.303 157.041 233.495 163.895Z" fill="#A2CCB6"/>
<path d="M216.82 142.989C215.676 139.695 215.729 135.976 216.979 132.708C218.229 129.441 220.676 126.625 223.734 124.951C224.984 124.261 226.341 123.729 227.458 122.826C227.83 124.5 228.096 126.173 228.202 127.873C228.335 129.574 228.335 131.274 227.883 132.894C226.74 137.091 222.857 139.96 218.974 141.926" fill="#A2CCB6"/>
<path d="M211.66 142.351C205.277 143.121 197.405 140.544 194.001 134.541C204.932 128.989 211.66 137.489 211.66 142.351Z" fill="#A2CCB6"/>
<path d="M214.586 156.829C210.517 157.147 206.394 157.333 202.432 156.457C198.442 155.58 194.533 153.508 192.086 149.975C192.033 149.869 191.953 149.762 191.953 149.63C191.927 149.417 192.086 149.258 192.246 149.125C195.916 145.857 201.102 144.742 205.65 146.203C210.197 147.69 213.974 151.702 215.41 156.616" fill="#A2CCB6"/>
<path d="M207.3 130.344C210.438 133.345 212.512 137.197 214.055 141.209C215.837 145.884 217.087 150.772 218.097 155.66C220.119 165.675 221.209 176.035 221.661 186.236C221.661 186.369 221.448 186.369 221.422 186.236C220.278 176.194 219.773 166.179 217.805 156.244C216.874 151.542 215.704 146.867 214.108 142.351C212.566 137.968 210.491 133.77 207.193 130.45C207.114 130.397 207.22 130.29 207.3 130.344Z" fill="#597F6E"/>
<path d="M218.708 160.84C212.963 152.791 202.299 150.533 192.99 150.108C192.857 150.108 192.857 149.922 192.99 149.922C198.097 149.576 203.469 150.772 208.176 152.684C212.405 154.411 216.474 156.749 218.947 160.707C219.027 160.866 218.814 160.999 218.708 160.84Z" fill="#597F6E"/>
<path d="M217.006 151.409C216.953 147.664 216.58 143.918 217.298 140.199C217.99 136.772 219.373 133.637 221.421 130.822C221.5 130.715 221.367 130.636 221.288 130.689C216.288 136.321 216.234 144.343 216.873 151.409C216.899 151.462 217.006 151.489 217.006 151.409Z" fill="#597F6E"/>
<path d="M202.165 136.533C204.692 136.772 206.899 138.313 208.841 139.801C211.181 141.607 213.389 143.599 215.463 145.671C215.543 145.751 215.41 145.857 215.33 145.804C213.282 144.104 211.447 142.165 209.399 140.465C207.325 138.765 204.905 136.932 202.165 136.586C202.139 136.586 202.139 136.533 202.165 136.533Z" fill="#597F6E"/>
<path d="M230.995 173.246C232.511 165.489 235.622 158.37 240.835 152.34C243.335 149.417 246.207 146.841 249.399 144.689C252.723 142.431 256.287 140.89 260.037 139.456C260.196 139.403 260.143 139.164 259.957 139.217C252.431 141.182 245.463 146.389 240.489 152.26C235.516 158.104 231.739 165.542 230.809 173.219C230.809 173.326 230.995 173.352 230.995 173.246Z" fill="#597F6E"/>
<path d="M239.852 126.704C243.575 134.116 245.783 144.29 241.235 151.834C241.129 151.994 240.916 151.861 240.996 151.702C244.772 143.599 243.389 134.674 239.666 126.81C239.586 126.704 239.772 126.571 239.852 126.704Z" fill="#597F6E"/>
<path d="M244.532 168.092V174.308C244.532 198.987 238.016 206 238.016 206H217.884C217.884 206 211.368 198.987 211.368 174.308V168.092H244.532Z" fill="#F2F5F9"/>
<path d="M28.207 206L45.2812 124.207" stroke="#544943" stroke-width="0.747991"/>
<path d="M62.3815 206L45.2808 124.207" stroke="#544943" stroke-width="0.747991"/>
<path d="M200.731 206L217.832 124.207" stroke="#544943" stroke-width="0.747991"/>
<path d="M234.906 206L217.832 124.207" stroke="#544943" stroke-width="0.747991"/>
<path d="M232.803 124.206H28.7642V119.292H232.803V124.206Z" fill="#E7EAF2"/>
<path d="M222.964 109.968H150.864C149.587 109.968 148.603 108.799 148.843 107.551L157.114 61.0092C157.38 59.5216 158.656 58.459 160.172 58.459H232.272C233.549 58.459 234.533 59.6013 234.32 60.8764L226.022 107.418C225.756 108.905 224.48 109.968 222.964 109.968Z" fill="#475577"/>
<path d="M224.665 109.968H152.539C151.262 109.968 150.278 108.799 150.517 107.551L158.789 61.0092C159.055 59.5216 160.331 58.459 161.847 58.459H233.947C235.223 58.459 236.207 59.6013 235.995 60.8764L227.697 107.418C227.431 108.905 226.154 109.968 224.665 109.968Z" fill="#C0CCD8"/>
<g opacity="0.5">
<path d="M211.395 109.968H169.746C169.002 109.968 168.443 109.304 168.55 108.56L173.337 81.6769C173.496 80.8268 174.241 80.2158 175.119 80.2158H216.767C217.485 80.2158 218.07 80.8799 217.937 81.6237L213.15 108.507C212.99 109.357 212.246 109.968 211.395 109.968Z" fill="#8E9DB2"/>
</g>
<path d="M212.379 109.968H170.731C169.986 109.968 169.428 109.304 169.561 108.56L174.348 81.6769C174.507 80.8268 175.225 80.2158 176.103 80.2158H217.751C218.496 80.2158 219.054 80.8799 218.921 81.6237L214.134 108.507C214.001 109.357 213.257 109.968 212.379 109.968Z" fill="#C6D2E0"/>
<path d="M186.262 94.1621H203.15V109.968H186.262V94.1621Z" fill="#8E9DB2"/>
<path fill-rule="evenodd" clip-rule="evenodd" d="M207.511 116.742H190.597L186.262 98.7047V94.1621H202.192L207.511 116.742ZM200.464 106.993C199.905 104.283 197.884 102.078 195.996 102.078C194.107 102.078 193.044 104.283 193.602 106.993C194.187 109.729 196.182 111.934 198.07 111.934C199.985 111.934 201.049 109.729 200.464 106.993Z" fill="#475577"/>
<path d="M176.927 116.742H214.799V119.292H174.348C174.348 117.884 175.518 116.742 176.927 116.742Z" fill="#475577"/>
<path d="M184.533 116.742H214.799V119.292H184.533V116.742Z" fill="#C0CCD8"/>
<path fill-rule="evenodd" clip-rule="evenodd" d="M208.495 116.742H191.581L186.262 94.1621H203.15L208.495 116.742ZM201.421 106.993C200.836 104.283 198.841 102.078 196.953 102.078C195.038 102.078 193.974 104.283 194.559 106.993C195.118 109.729 197.139 111.934 199.027 111.934C200.916 111.934 201.98 109.729 201.421 106.993Z" fill="#C0CCD8"/>
<g opacity="0.7">
<path d="M164.667 63.0273L163.657 68.6591H162.673L163.657 63.0273H164.667Z" fill="#8E9DB2"/>
<path d="M167.566 63.0273L166.556 68.6591H165.572L166.556 63.0273H167.566Z" fill="#8E9DB2"/>
<path d="M170.465 63.0273L169.454 68.6591H168.471L169.454 63.0273H170.465Z" fill="#8E9DB2"/>
<path d="M173.364 63.0273L172.353 68.6591H171.37L172.353 63.0273H173.364Z" fill="#8E9DB2"/>
<path d="M176.262 63.0273L175.252 68.6591H174.268L175.252 63.0273H176.262Z" fill="#8E9DB2"/>
</g>
<g opacity="0.7">
<path d="M202.725 63.0273L201.715 68.6591H200.705L201.715 63.0273H202.725Z" fill="#8E9DB2"/>
<path d="M205.757 63.0273L204.774 68.6591H203.763L204.774 63.0273H205.757Z" fill="#8E9DB2"/>
<path d="M208.816 63.0273L207.805 68.6591H206.795L207.805 63.0273H208.816Z" fill="#8E9DB2"/>
<path d="M211.847 63.0273L210.863 68.6591H209.853L210.863 63.0273H211.847Z" fill="#8E9DB2"/>
<path d="M214.906 63.0273L213.895 68.6591H212.912L213.895 63.0273H214.906Z" fill="#8E9DB2"/>
<path d="M217.937 63.0273L216.953 68.6591H215.943L216.953 63.0273H217.937Z" fill="#8E9DB2"/>
<path d="M220.996 63.0273L219.985 68.6591H219.001L219.985 63.0273H220.996Z" fill="#8E9DB2"/>
<path d="M224.027 63.0273L223.044 68.6591H222.033L223.044 63.0273H224.027Z" fill="#8E9DB2"/>
<path d="M227.085 63.0273L226.075 68.6591H225.091L226.075 63.0273H227.085Z" fill="#8E9DB2"/>
<path d="M230.144 63.0273L229.134 68.6591H228.124L229.134 63.0273H230.144Z" fill="#8E9DB2"/>
</g>
<g opacity="0.5">
<path d="M86.2355 106.542C86.2355 106.542 86.7142 106.462 86.9003 106.196C87.2993 105.638 86.6344 105.081 86.2089 104.788C85.6769 104.443 84.9057 104.337 84.6397 103.646C84.3472 102.902 84.8791 102.052 85.4908 101.654C86.0227 101.308 86.6344 101.122 87.2195 100.91C87.8844 100.671 88.5492 100.272 88.9216 99.6614C89.4269 98.891 89.3205 97.8815 89.3737 97.0315C89.6397 93.6312 93.097 91.9576 96.0225 91.8779C97.4853 91.8513 99.7193 92.3826 100.677 93.4984C101.022 93.8968 101.262 94.3484 101.368 94.8266C101.501 95.597 101.209 96.3142 100.703 96.8721C100.198 97.4565 99.5065 97.7753 98.9746 98.3066C98.3895 98.8379 98.815 99.3957 98.682 100.033C98.5225 100.751 98.0438 101.043 97.4321 101.388C96.1555 102.105 94.613 102.291 93.2034 102.69C92.7779 102.796 92.3258 102.955 91.9534 103.248C91.5013 103.593 91.2354 104.151 90.8896 104.629C90.2513 105.506 89.2939 106.117 88.2301 106.329" fill="url(#paint0_linear_438_1332)"/>
</g>
<path d="M94.3743 115.095H91.6084V113.767H94.3743C95.252 113.767 95.9966 113.049 95.9966 112.146V109.862C95.9966 108.985 95.252 108.241 94.3743 108.241H91.6084V106.939H94.3743C95.9966 106.939 97.2998 108.241 97.2998 109.862V112.146C97.2998 113.767 95.9966 115.095 94.3743 115.095Z" fill="#E8EAEF"/>
<path d="M90.4117 118.549H85.731C83.9491 118.549 82.4863 117.114 82.4863 115.308V105.054H93.6829V115.308C93.6829 117.114 92.2202 118.549 90.4117 118.549Z" fill="#E8EAEF"/>
<path d="M95.4913 116.662C95.4913 116.662 95.3849 119.292 91.2893 119.292H84.8798C80.7841 119.292 80.6777 116.662 80.6777 116.662H95.4913Z" fill="#C6D2E0"/>
<path d="M170.599 119.293H111.397V118.256H170.599V119.293Z" fill="#475577"/>
<path d="M117.675 118.257H113.419V117.406H117.675V118.257Z" fill="#475577"/>
<path d="M124.084 118.257H119.855V117.406H124.084V118.257Z" fill="#475577"/>
<path d="M130.493 118.257H126.264V117.406H130.493V118.257Z" fill="#475577"/>
<path d="M136.929 118.257H132.674V117.406H136.929V118.257Z" fill="#475577"/>
<path d="M143.338 118.257H139.109V117.406H143.338V118.257Z" fill="#475577"/>
<path d="M149.775 118.257H145.52V117.406H149.775V118.257Z" fill="#475577"/>
<path d="M156.185 118.257H151.956V117.406H156.185V118.257Z" fill="#475577"/>
<path d="M162.62 118.257H158.365V117.406H162.62V118.257Z" fill="#475577"/>
<path d="M169.029 118.257H164.8V117.406H169.029V118.257Z" fill="#475577"/>
<path d="M171.369 119.293H112.167V118.256H171.369V119.293Z" fill="#C0CCD8"/>
<path d="M118.444 118.257H114.188V117.406H118.444V118.257Z" fill="#C0CCD8"/>
<path d="M124.853 118.257H120.624V117.406H124.853V118.257Z" fill="#C0CCD8"/>
<path d="M131.289 118.257H127.034V117.406H131.289V118.257Z" fill="#C0CCD8"/>
<path d="M137.699 118.257H133.47V117.406H137.699V118.257Z" fill="#C0CCD8"/>
<path d="M144.107 118.257H139.878V117.406H144.107V118.257Z" fill="#C0CCD8"/>
<path d="M150.544 118.257H146.289V117.406H150.544V118.257Z" fill="#C0CCD8"/>
<path d="M156.954 118.257H152.725V117.406H156.954V118.257Z" fill="#C0CCD8"/>
<path d="M163.389 118.257H159.134V117.406H163.389V118.257Z" fill="#C0CCD8"/>
<path d="M169.799 118.257H165.57V117.406H169.799V118.257Z" fill="#C0CCD8"/>
<path d="M26.0247 158.209C22.5407 156.801 19.0302 154.649 17.727 151.143C17.2217 149.788 17.0887 148.327 17.0621 146.866C17.0444 145.396 17.1419 143.935 17.3547 142.482C18.3653 143.173 19.5621 143.518 20.6791 144.023C23.4184 145.245 25.7322 147.477 27.0353 150.16C28.3651 152.869 28.6842 156.057 27.9396 158.953" fill="#8EBCA2"/>
<path d="M28.3659 168.383C28.4723 161.582 28.5787 153.826 23.2064 148.778C23.1266 148.699 23.0202 148.805 23.1 148.884C25.4936 151.674 27.2223 155.047 27.7276 158.713C28.1797 161.928 27.9936 165.169 28.2595 168.383C28.2595 168.463 28.3659 168.463 28.3659 168.383Z" fill="#597F6E"/>
<path d="M4.32355 170.217C3.07358 168.41 2.00977 164.638 2.00977 164.638C2.00977 164.638 7.08946 164.372 8.17987 164.612C10.1479 165.063 12.0096 165.913 13.6319 167.082C16.9297 169.473 19.1637 173.245 19.669 177.283C12.3553 177.628 7.24903 174.44 4.32355 170.217Z" fill="#8EBCA2"/>
<path d="M8.81928 159.83C7.99483 159.086 7.17038 158.316 6.5321 157.386C5.12255 155.261 4.82999 152.551 4.85659 149.975C7.88845 150.532 11.0533 151.781 12.7288 154.437C13.2341 155.261 13.5798 156.191 13.899 157.121C14.6436 159.432 15.0958 161.849 15.2287 164.293C13.4735 162.965 10.4416 161.318 8.81928 159.83Z" fill="#A2CCB6"/>
<path d="M32.4091 155.421C31.9304 152.153 31.5049 148.673 32.9676 145.751C33.4995 144.688 34.2708 143.759 35.0953 142.909C37.0633 140.89 39.6696 139.189 42.5153 139.189C43.0472 142.218 42.409 145.459 40.8132 148.089C39.2175 150.719 35.3612 154.464 32.4091 155.421Z" fill="#A2CCB6"/>
<path d="M40.3075 164.293C40.4405 164.293 40.5735 164.32 40.6798 164.399C40.7596 164.506 40.7596 164.665 40.733 164.798C40.2809 167.853 38.5522 170.695 35.9991 172.475C33.4725 174.255 30.2013 174.919 27.1694 174.308C28.579 169.261 35.0682 164.267 40.3075 164.293Z" fill="#A2CCB6"/>
<path d="M16.7696 153.375C18.1259 151.728 20.4663 149.815 23.578 150.001C23.4982 155.261 20.7323 160.122 16.4238 162.539C14.7217 159.697 14.8813 155.686 16.7696 153.375Z" fill="#A2CCB6"/>
<path d="M19.563 171.067C18.3929 168.198 18.7652 164.771 20.4939 162.221C22.2226 159.644 25.2544 158.023 28.3395 158.023C28.4725 158.023 28.6054 158.023 28.6852 158.13C28.7384 158.183 28.7384 158.263 28.7384 158.342C28.8714 160.999 27.7012 163.575 26.0257 165.621C24.3502 167.666 22.196 169.287 20.0418 170.828" fill="#A2CCB6"/>
<path d="M37.2491 147.956C31.5843 153.641 29.6428 162.487 28.1269 170.084C26.4514 178.611 26.0525 187.245 25.0152 195.852C24.9886 195.985 24.7759 196.011 24.7759 195.852C25.095 187.059 26.1056 178.107 27.8609 169.5C29.3769 162.035 31.3981 153.295 37.1427 147.849C37.1959 147.796 37.3023 147.903 37.2491 147.956Z" fill="#597F6E"/>
<path d="M19.2964 175.636C18.8976 173.352 19.2166 170.217 20.3067 168.118C20.3599 168.039 20.4928 168.092 20.4663 168.198C19.8813 170.695 19.4559 173.033 19.5357 175.61C19.5623 175.769 19.323 175.796 19.2964 175.636Z" fill="#597F6E"/>
<path d="M19.9346 153.667C16.4772 157.067 16.1315 163.071 17.1421 167.48C17.1687 167.587 17.0091 167.64 16.9825 167.534C15.573 163.283 16.4506 156.748 19.908 153.64C19.9346 153.614 19.9612 153.667 19.9346 153.667Z" fill="#597F6E"/>
<path d="M20.9718 190.592C20.5995 184.642 20.1473 178.798 18.525 173.033C17.6474 170.005 16.557 167.029 15.0942 164.24C13.6847 161.504 11.8762 159.14 9.96135 156.749C9.85497 156.643 10.0145 156.457 10.1209 156.563C14.456 160.734 17.0623 166.897 18.7112 172.555C20.3601 178.293 21.3441 184.589 21.158 190.592C21.158 190.725 20.9718 190.725 20.9718 190.592Z" fill="#597F6E"/>
<path d="M38.7643 180.152V184.376C38.7643 201.218 33.1793 206 33.1793 206H15.8658C15.8658 206 10.2808 201.218 10.2808 184.376V180.152H38.7643Z" fill="#F2F5F9"/>
<path d="M0.786621 206H272.271" stroke="#475577" stroke-width="0.997322"/>
<defs>
<linearGradient id="paint0_linear_438_1332" x1="86.794" y1="106.542" x2="86.794" y2="91.8779" gradientUnits="userSpaceOnUse">
<stop stop-color="white" stop-opacity="0.1"/>
<stop offset="1" stop-color="white" stop-opacity="0.4"/>
</linearGradient>
</defs>
</svg>
