<svg width="16" height="16" viewBox="0 0 16 16" fill="none" xmlns="http://www.w3.org/2000/svg">
<g id="Frame">
<path id="Vector" d="M4.66797 11.9993V10.3327M4.66797 10.3327V9.33268C4.66797 9.01842 4.66797 8.86128 4.77048 8.76362C4.873 8.66602 5.03799 8.66602 5.36797 8.66602H5.83464C6.31788 8.66602 6.70964 9.03908 6.70964 9.49935C6.70964 9.95962 6.31788 10.3327 5.83464 10.3327H4.66797ZM14.0013 8.66602H13.1263C12.5763 8.66602 12.3014 8.66602 12.1305 8.82875C11.9596 8.99148 11.9596 9.25335 11.9596 9.77715V10.3327M11.9596 10.3327V11.9993M11.9596 10.3327H13.418M10.5013 10.3327C10.5013 11.2531 9.71777 11.9993 8.7513 11.9993C8.53324 11.9993 8.42417 11.9993 8.34297 11.9547C8.1485 11.8477 8.16797 11.6313 8.16797 11.4438V9.22155C8.16797 9.03402 8.1485 8.81762 8.34297 8.71068C8.42417 8.66602 8.53324 8.66602 8.7513 8.66602C9.71777 8.66602 10.5013 9.41222 10.5013 10.3327Z" stroke="#F5F5F5" stroke-linecap="round"/>
<path id="Vector_2" d="M10 14.6673H7.15153C4.97738 14.6673 3.89031 14.6673 3.13538 14.1355C2.91908 13.9831 2.72705 13.8023 2.56513 13.5987C2 12.8882 2 11.8651 2 9.81885V8.12185C2 6.14642 2 5.15869 2.31263 4.36982C2.81521 3.1016 3.87809 2.10124 5.22557 1.62822C6.06375 1.33398 7.1132 1.33398 9.21213 1.33398C10.4115 1.33398 11.0112 1.33398 11.4901 1.50212C12.2601 1.77242 12.8675 2.34405 13.1547 3.06874C13.3333 3.51953 13.3333 4.08394 13.3333 5.21277V6.66732" stroke="#F5F5F5" stroke-linecap="round"/>
<path id="Vector_3" d="M2 8.00065C2 6.77338 2.99492 5.77843 4.22222 5.77843C4.66608 5.77843 5.18936 5.8562 5.62091 5.74057C6.00435 5.63782 6.30384 5.33833 6.40659 4.95489C6.52222 4.52334 6.44445 4.00006 6.44445 3.5562C6.44445 2.3289 7.4394 1.33398 8.66667 1.33398" stroke="#F5F5F5" stroke-linecap="round"/>
</g>
</svg>
