<svg width="16" height="16" viewBox="0 0 16 16" fill="none" xmlns="http://www.w3.org/2000/svg">
<path fill-rule="evenodd" clip-rule="evenodd" d="M7.99936 3.92676C7.39788 3.92676 6.85292 4.01869 6.36304 4.16565C6.09852 4.24501 5.8198 4.09493 5.74044 3.83043C5.66108 3.56593 5.8112 3.28719 6.07568 3.20785C6.65248 3.03481 7.29416 2.92676 7.99936 2.92676C11.218 2.92676 13.8327 5.51321 13.8327 8.71341C13.8327 11.9137 11.218 14.5001 7.99936 14.5001C4.78064 14.5001 2.16602 11.9137 2.16602 8.71341C2.16602 7.52321 2.53133 6.41309 3.1515 5.49381C3.30593 5.26489 3.6167 5.20449 3.84562 5.35893C4.07452 5.51337 4.13492 5.82413 3.9805 6.05305C3.46733 6.81373 3.16602 7.73033 3.16602 8.71341C3.16602 11.3532 5.32472 13.5001 7.99936 13.5001C10.674 13.5001 12.8327 11.3532 12.8327 8.71341C12.8327 6.07365 10.674 3.92676 7.99936 3.92676Z" fill="#F5F5F5"/>
<path fill-rule="evenodd" clip-rule="evenodd" d="M7.43898 1.58058C7.67062 1.73085 7.73662 2.04048 7.58634 2.27215L6.73942 3.57787L8.0575 4.4263C8.2897 4.57574 8.35674 4.88514 8.2073 5.11734C8.05782 5.34954 7.74842 5.41662 7.51626 5.26714L5.77626 4.14714C5.6645 4.07522 5.58598 3.96174 5.55806 3.8318C5.5301 3.70185 5.55506 3.56614 5.62738 3.45463L6.74738 1.72797C6.89766 1.49629 7.2073 1.43031 7.43898 1.58058Z" fill="#F5F5F5"/>
</svg>
