<svg width="20" height="22" viewBox="0 0 20 22" fill="none" xmlns="http://www.w3.org/2000/svg">
<g id="Setting">
<path id="Path_33946" fill-rule="evenodd" clip-rule="evenodd" d="M18.8074 6.62386L18.185 5.54377C17.6584 4.62985 16.4914 4.31456 15.5763 4.83896V4.83896C15.1406 5.09559 14.6208 5.1684 14.1314 5.04133C13.6421 4.91427 13.2233 4.59776 12.9676 4.16162C12.803 3.88439 12.7146 3.56864 12.7113 3.24628V3.24628C12.7261 2.72947 12.5311 2.22865 12.1708 1.85791C11.8104 1.48718 11.3153 1.27811 10.7982 1.27832H9.54423C9.0377 1.27831 8.55205 1.48016 8.19473 1.83919C7.83742 2.19822 7.63791 2.68484 7.64034 3.19136V3.19136C7.62533 4.23717 6.77321 5.07706 5.7273 5.07695C5.40494 5.0736 5.08919 4.98519 4.81197 4.82065V4.82065C3.89679 4.29626 2.72985 4.61154 2.20327 5.52546L1.53508 6.62386C1.00914 7.53664 1.32013 8.70285 2.23073 9.23255V9.23255C2.82263 9.57428 3.18726 10.2058 3.18726 10.8893C3.18726 11.5728 2.82263 12.2043 2.23073 12.5461V12.5461C1.32129 13.0722 1.00996 14.2356 1.53508 15.1456V15.1456L2.16666 16.2348C2.41338 16.68 2.82734 17.0085 3.31693 17.1477C3.80652 17.2868 4.33137 17.2251 4.77535 16.9763V16.9763C5.21181 16.7216 5.73192 16.6518 6.22007 16.7824C6.70822 16.9131 7.12397 17.2333 7.3749 17.6719C7.53943 17.9491 7.62784 18.2649 7.63119 18.5872V18.5872C7.63119 19.6438 8.48769 20.5003 9.54423 20.5003H10.7982C11.8512 20.5003 12.7062 19.6494 12.7113 18.5964V18.5964C12.7088 18.0883 12.9096 17.6003 13.2689 17.241C13.6282 16.8817 14.1162 16.6809 14.6243 16.6834C14.9459 16.692 15.2604 16.78 15.5397 16.9396V16.9396C16.4524 17.4656 17.6186 17.1546 18.1484 16.244V16.244L18.8074 15.1456C19.0625 14.7077 19.1325 14.1863 19.0019 13.6966C18.8714 13.207 18.551 12.7896 18.1117 12.5369V12.5369C17.6725 12.2842 17.3521 11.8668 17.2215 11.3772C17.091 10.8875 17.161 10.3661 17.4161 9.92821C17.582 9.63858 17.8221 9.39844 18.1117 9.23255V9.23255C19.0169 8.70314 19.3271 7.54374 18.8074 6.63301V6.63301V6.62386Z" stroke="#27CF7A" stroke-width="1.5" stroke-linecap="round" stroke-linejoin="round"/>
<circle id="Ellipse_737" cx="10.1752" cy="10.8891" r="2.63616" stroke="#27CF7A" stroke-width="1.5" stroke-linecap="round" stroke-linejoin="round"/>
</g>
</svg>
