<svg width="16" height="16" viewBox="0 0 16 16" fill="none" xmlns="http://www.w3.org/2000/svg">
<g id="zap-circle" clip-path="url(#clip0_764_19491)">
<g id="Icon">
<path d="M8.00016 3.66732L4.90789 8.16517C4.72174 8.43594 4.62866 8.57132 4.63425 8.68386C4.63912 8.78187 4.68693 8.87275 4.76493 8.93229C4.8545 9.00065 5.01879 9.00065 5.34738 9.00065H8.00016V12.334L11.0924 7.83613C11.2786 7.56536 11.3717 7.42998 11.3661 7.31745C11.3612 7.21944 11.3134 7.12855 11.2354 7.06901C11.1458 7.00065 10.9815 7.00065 10.6529 7.00065H8.00016V3.66732Z" stroke="#3D8EFE" stroke-linecap="round" stroke-linejoin="round"/>
<path d="M8.00016 14.6673C11.6821 14.6673 14.6668 11.6826 14.6668 8.00065C14.6668 4.31875 11.6821 1.33398 8.00016 1.33398C4.31826 1.33398 1.3335 4.31875 1.3335 8.00065C1.3335 11.6826 4.31826 14.6673 8.00016 14.6673Z" stroke="#3D8EFE" stroke-linecap="round" stroke-linejoin="round"/>
</g>
</g>
<defs>
<clipPath id="clip0_764_19491">
<rect width="16" height="16" fill="white"/>
</clipPath>
</defs>
</svg>
