<svg width="20" height="20" viewBox="0 0 20 20" fill="none" xmlns="http://www.w3.org/2000/svg">
<g id="IT" clip-path="url(#clip0_451_92)">
<path id="Vector" d="M10 20C15.5228 20 20 15.5228 20 10C20 4.47715 15.5228 0 10 0C4.47715 0 0 4.47715 0 10C0 15.5228 4.47715 20 10 20Z" fill="#F0F0F0"/>
<path id="Vector_2" d="M19.9998 9.99922C19.9998 5.69957 17.286 2.03415 13.478 0.621216V19.3773C17.286 17.9643 19.9998 14.2989 19.9998 9.99922Z" fill="#D80027"/>
<path id="Vector_3" d="M0 9.99971C0 14.2994 2.71375 17.9648 6.52176 19.3777V0.621704C2.71375 2.03463 0 5.70006 0 9.99971Z" fill="#6DA544"/>
</g>
<defs>
<clipPath id="clip0_451_92">
<rect width="20" height="20" fill="white"/>
</clipPath>
</defs>
</svg>
